%TF.GenerationSoftware,KiCad,Pcbnew,10.0.4*%
%TF.CreationDate,2026-07-21T10:54:00-05:00*%
%TF.ProjectId,pic_programmer,7069635f-7072-46f6-9772-616d6d65722e,rev?*%
%TF.SameCoordinates,Original*%
%TF.FileFunction,Copper,L1,Top*%
%TF.FilePolarity,Positive*%
%FSLAX46Y46*%
G04 Gerber Fmt 4.6, Leading zero omitted, Abs format (unit mm)*
G04 Created by KiCad (PCBNEW 10.0.4) date 2026-07-21 10:54:00*
%MOMM*%
%LPD*%
G01*
G04 APERTURE LIST*
G04 Aperture macros list*
%AMRoundRect*
0 Rectangle with rounded corners*
0 $1 Rounding radius*
0 $2 $3 $4 $5 $6 $7 $8 $9 X,Y pos of 4 corners*
0 Add a 4 corners polygon primitive as box body*
4,1,4,$2,$3,$4,$5,$6,$7,$8,$9,$2,$3,0*
0 Add four circle primitives for the rounded corners*
1,1,$1+$1,$2,$3*
1,1,$1+$1,$4,$5*
1,1,$1+$1,$6,$7*
1,1,$1+$1,$8,$9*
0 Add four rect primitives between the rounded corners*
20,1,$1+$1,$2,$3,$4,$5,0*
20,1,$1+$1,$4,$5,$6,$7,0*
20,1,$1+$1,$6,$7,$8,$9,0*
20,1,$1+$1,$8,$9,$2,$3,0*%
G04 Aperture macros list end*
%ADD10C,0.304800*%
%TA.AperFunction,NonConductor*%
%ADD11C,0.304800*%
%TD*%
%TA.AperFunction,ComponentPad*%
%ADD12RoundRect,0.250001X0.949999X0.949999X-0.949999X0.949999X-0.949999X-0.949999X0.949999X-0.949999X0*%
%TD*%
%TA.AperFunction,ComponentPad*%
%ADD13C,2.400000*%
%TD*%
%TA.AperFunction,ComponentPad*%
%ADD14RoundRect,0.250001X-0.949999X-0.949999X0.949999X-0.949999X0.949999X0.949999X-0.949999X0.949999X0*%
%TD*%
%TA.AperFunction,ComponentPad*%
%ADD15C,2.800000*%
%TD*%
%TA.AperFunction,ComponentPad*%
%ADD16O,2.800000X1.600000*%
%TD*%
%TA.AperFunction,ComponentPad*%
%ADD17R,2.800000X1.600000*%
%TD*%
%TA.AperFunction,ComponentPad*%
%ADD18RoundRect,0.250000X-0.950000X-0.550000X0.950000X-0.550000X0.950000X0.550000X-0.950000X0.550000X0*%
%TD*%
%TA.AperFunction,ComponentPad*%
%ADD19O,2.400000X1.600000*%
%TD*%
%TA.AperFunction,ComponentPad*%
%ADD20RoundRect,0.250000X0.550000X-0.950000X0.550000X0.950000X-0.550000X0.950000X-0.550000X-0.950000X0*%
%TD*%
%TA.AperFunction,ComponentPad*%
%ADD21O,1.600000X2.400000*%
%TD*%
%TA.AperFunction,ComponentPad*%
%ADD22RoundRect,0.250000X0.550000X0.550000X-0.550000X0.550000X-0.550000X-0.550000X0.550000X-0.550000X0*%
%TD*%
%TA.AperFunction,ComponentPad*%
%ADD23C,1.600000*%
%TD*%
%TA.AperFunction,ComponentPad*%
%ADD24RoundRect,0.250000X-0.550000X-0.550000X0.550000X-0.550000X0.550000X0.550000X-0.550000X0.550000X0*%
%TD*%
%TA.AperFunction,ComponentPad*%
%ADD25R,1.600000X1.600000*%
%TD*%
%TA.AperFunction,ComponentPad*%
%ADD26C,4.000000*%
%TD*%
%TA.AperFunction,ComponentPad*%
%ADD27RoundRect,0.325000X-0.325000X-0.325000X0.325000X-0.325000X0.325000X0.325000X-0.325000X0.325000X0*%
%TD*%
%TA.AperFunction,ComponentPad*%
%ADD28C,1.300000*%
%TD*%
%TA.AperFunction,ComponentPad*%
%ADD29RoundRect,0.325000X0.325000X0.325000X-0.325000X0.325000X-0.325000X-0.325000X0.325000X-0.325000X0*%
%TD*%
%TA.AperFunction,ComponentPad*%
%ADD30R,1.800000X1.800000*%
%TD*%
%TA.AperFunction,ComponentPad*%
%ADD31C,1.800000*%
%TD*%
%TA.AperFunction,ComponentPad*%
%ADD32C,2.032000*%
%TD*%
%TA.AperFunction,ComponentPad*%
%ADD33RoundRect,0.249999X-1.250001X1.250001X-1.250001X-1.250001X1.250001X-1.250001X1.250001X1.250001X0*%
%TD*%
%TA.AperFunction,ComponentPad*%
%ADD34C,3.000000*%
%TD*%
%TA.AperFunction,ComponentPad*%
%ADD35R,1.905000X2.000000*%
%TD*%
%TA.AperFunction,ComponentPad*%
%ADD36O,1.905000X2.000000*%
%TD*%
%TA.AperFunction,ComponentPad*%
%ADD37C,2.600000*%
%TD*%
%TA.AperFunction,ComponentPad*%
%ADD38RoundRect,0.250000X0.550000X-0.550000X0.550000X0.550000X-0.550000X0.550000X-0.550000X-0.550000X0*%
%TD*%
%TA.AperFunction,ViaPad*%
%ADD39C,1.600000*%
%TD*%
%TA.AperFunction,Conductor*%
%ADD40C,0.800000*%
%TD*%
%TA.AperFunction,Conductor*%
%ADD41C,0.500000*%
%TD*%
G04 APERTURE END LIST*
D10*
D11*
X77290857Y-55650096D02*
X78452000Y-55650096D01*
X77871428Y-56424191D02*
X77871428Y-54876001D01*
X79395428Y-55263049D02*
X79250285Y-55166287D01*
X79250285Y-55166287D02*
X79177714Y-55069525D01*
X79177714Y-55069525D02*
X79105142Y-54876001D01*
X79105142Y-54876001D02*
X79105142Y-54779239D01*
X79105142Y-54779239D02*
X79177714Y-54585715D01*
X79177714Y-54585715D02*
X79250285Y-54488953D01*
X79250285Y-54488953D02*
X79395428Y-54392191D01*
X79395428Y-54392191D02*
X79685714Y-54392191D01*
X79685714Y-54392191D02*
X79830857Y-54488953D01*
X79830857Y-54488953D02*
X79903428Y-54585715D01*
X79903428Y-54585715D02*
X79975999Y-54779239D01*
X79975999Y-54779239D02*
X79975999Y-54876001D01*
X79975999Y-54876001D02*
X79903428Y-55069525D01*
X79903428Y-55069525D02*
X79830857Y-55166287D01*
X79830857Y-55166287D02*
X79685714Y-55263049D01*
X79685714Y-55263049D02*
X79395428Y-55263049D01*
X79395428Y-55263049D02*
X79250285Y-55359810D01*
X79250285Y-55359810D02*
X79177714Y-55456572D01*
X79177714Y-55456572D02*
X79105142Y-55650096D01*
X79105142Y-55650096D02*
X79105142Y-56037144D01*
X79105142Y-56037144D02*
X79177714Y-56230668D01*
X79177714Y-56230668D02*
X79250285Y-56327430D01*
X79250285Y-56327430D02*
X79395428Y-56424191D01*
X79395428Y-56424191D02*
X79685714Y-56424191D01*
X79685714Y-56424191D02*
X79830857Y-56327430D01*
X79830857Y-56327430D02*
X79903428Y-56230668D01*
X79903428Y-56230668D02*
X79975999Y-56037144D01*
X79975999Y-56037144D02*
X79975999Y-55650096D01*
X79975999Y-55650096D02*
X79903428Y-55456572D01*
X79903428Y-55456572D02*
X79830857Y-55359810D01*
X79830857Y-55359810D02*
X79685714Y-55263049D01*
X81717714Y-54295430D02*
X80411428Y-56908001D01*
X83023999Y-56424191D02*
X82153142Y-56424191D01*
X82588571Y-56424191D02*
X82588571Y-54392191D01*
X82588571Y-54392191D02*
X82443428Y-54682477D01*
X82443428Y-54682477D02*
X82298285Y-54876001D01*
X82298285Y-54876001D02*
X82153142Y-54972763D01*
X83604571Y-54585715D02*
X83677143Y-54488953D01*
X83677143Y-54488953D02*
X83822286Y-54392191D01*
X83822286Y-54392191D02*
X84185143Y-54392191D01*
X84185143Y-54392191D02*
X84330286Y-54488953D01*
X84330286Y-54488953D02*
X84402857Y-54585715D01*
X84402857Y-54585715D02*
X84475428Y-54779239D01*
X84475428Y-54779239D02*
X84475428Y-54972763D01*
X84475428Y-54972763D02*
X84402857Y-55263049D01*
X84402857Y-55263049D02*
X83532000Y-56424191D01*
X83532000Y-56424191D02*
X84475428Y-56424191D01*
X84910857Y-54392191D02*
X85418857Y-56424191D01*
X85418857Y-56424191D02*
X85926857Y-54392191D01*
D10*
D11*
X88010999Y-136052191D02*
X88010999Y-137503620D01*
X88010999Y-137503620D02*
X87938428Y-137793906D01*
X87938428Y-137793906D02*
X87793285Y-137987430D01*
X87793285Y-137987430D02*
X87575571Y-138084191D01*
X87575571Y-138084191D02*
X87430428Y-138084191D01*
X88736714Y-138084191D02*
X88736714Y-136052191D01*
X88736714Y-136052191D02*
X89317285Y-136052191D01*
X89317285Y-136052191D02*
X89462428Y-136148953D01*
X89462428Y-136148953D02*
X89534999Y-136245715D01*
X89534999Y-136245715D02*
X89607571Y-136439239D01*
X89607571Y-136439239D02*
X89607571Y-136729525D01*
X89607571Y-136729525D02*
X89534999Y-136923049D01*
X89534999Y-136923049D02*
X89462428Y-137019810D01*
X89462428Y-137019810D02*
X89317285Y-137116572D01*
X89317285Y-137116572D02*
X88736714Y-137116572D01*
X90260714Y-137310096D02*
X91421857Y-137310096D01*
X93018428Y-137890668D02*
X92945856Y-137987430D01*
X92945856Y-137987430D02*
X92728142Y-138084191D01*
X92728142Y-138084191D02*
X92582999Y-138084191D01*
X92582999Y-138084191D02*
X92365285Y-137987430D01*
X92365285Y-137987430D02*
X92220142Y-137793906D01*
X92220142Y-137793906D02*
X92147571Y-137600382D01*
X92147571Y-137600382D02*
X92074999Y-137213334D01*
X92074999Y-137213334D02*
X92074999Y-136923049D01*
X92074999Y-136923049D02*
X92147571Y-136536001D01*
X92147571Y-136536001D02*
X92220142Y-136342477D01*
X92220142Y-136342477D02*
X92365285Y-136148953D01*
X92365285Y-136148953D02*
X92582999Y-136052191D01*
X92582999Y-136052191D02*
X92728142Y-136052191D01*
X92728142Y-136052191D02*
X92945856Y-136148953D01*
X92945856Y-136148953D02*
X93018428Y-136245715D01*
X93671571Y-138084191D02*
X93671571Y-136052191D01*
X93671571Y-137019810D02*
X94542428Y-137019810D01*
X94542428Y-138084191D02*
X94542428Y-136052191D01*
X95195570Y-137503620D02*
X95921285Y-137503620D01*
X95050427Y-138084191D02*
X95558427Y-136052191D01*
X95558427Y-136052191D02*
X96066427Y-138084191D01*
X97445285Y-138084191D02*
X96937285Y-137116572D01*
X96574428Y-138084191D02*
X96574428Y-136052191D01*
X96574428Y-136052191D02*
X97154999Y-136052191D01*
X97154999Y-136052191D02*
X97300142Y-136148953D01*
X97300142Y-136148953D02*
X97372713Y-136245715D01*
X97372713Y-136245715D02*
X97445285Y-136439239D01*
X97445285Y-136439239D02*
X97445285Y-136729525D01*
X97445285Y-136729525D02*
X97372713Y-136923049D01*
X97372713Y-136923049D02*
X97300142Y-137019810D01*
X97300142Y-137019810D02*
X97154999Y-137116572D01*
X97154999Y-137116572D02*
X96574428Y-137116572D01*
X98969285Y-138084191D02*
X98461285Y-137116572D01*
X98098428Y-138084191D02*
X98098428Y-136052191D01*
X98098428Y-136052191D02*
X98678999Y-136052191D01*
X98678999Y-136052191D02*
X98824142Y-136148953D01*
X98824142Y-136148953D02*
X98896713Y-136245715D01*
X98896713Y-136245715D02*
X98969285Y-136439239D01*
X98969285Y-136439239D02*
X98969285Y-136729525D01*
X98969285Y-136729525D02*
X98896713Y-136923049D01*
X98896713Y-136923049D02*
X98824142Y-137019810D01*
X98824142Y-137019810D02*
X98678999Y-137116572D01*
X98678999Y-137116572D02*
X98098428Y-137116572D01*
X99549856Y-137503620D02*
X100275571Y-137503620D01*
X99404713Y-138084191D02*
X99912713Y-136052191D01*
X99912713Y-136052191D02*
X100420713Y-138084191D01*
X100856142Y-137987430D02*
X101073857Y-138084191D01*
X101073857Y-138084191D02*
X101436714Y-138084191D01*
X101436714Y-138084191D02*
X101581857Y-137987430D01*
X101581857Y-137987430D02*
X101654428Y-137890668D01*
X101654428Y-137890668D02*
X101726999Y-137697144D01*
X101726999Y-137697144D02*
X101726999Y-137503620D01*
X101726999Y-137503620D02*
X101654428Y-137310096D01*
X101654428Y-137310096D02*
X101581857Y-137213334D01*
X101581857Y-137213334D02*
X101436714Y-137116572D01*
X101436714Y-137116572D02*
X101146428Y-137019810D01*
X101146428Y-137019810D02*
X101001285Y-136923049D01*
X101001285Y-136923049D02*
X100928714Y-136826287D01*
X100928714Y-136826287D02*
X100856142Y-136632763D01*
X100856142Y-136632763D02*
X100856142Y-136439239D01*
X100856142Y-136439239D02*
X100928714Y-136245715D01*
X100928714Y-136245715D02*
X101001285Y-136148953D01*
X101001285Y-136148953D02*
X101146428Y-136052191D01*
X101146428Y-136052191D02*
X101509285Y-136052191D01*
X101509285Y-136052191D02*
X101726999Y-136148953D01*
D10*
D11*
X117565713Y-96174191D02*
X116694856Y-96174191D01*
X117130285Y-96174191D02*
X117130285Y-94142191D01*
X117130285Y-94142191D02*
X116985142Y-94432477D01*
X116985142Y-94432477D02*
X116839999Y-94626001D01*
X116839999Y-94626001D02*
X116694856Y-94722763D01*
X118073714Y-94142191D02*
X119017142Y-94142191D01*
X119017142Y-94142191D02*
X118509142Y-94916287D01*
X118509142Y-94916287D02*
X118726857Y-94916287D01*
X118726857Y-94916287D02*
X118872000Y-95013049D01*
X118872000Y-95013049D02*
X118944571Y-95109810D01*
X118944571Y-95109810D02*
X119017142Y-95303334D01*
X119017142Y-95303334D02*
X119017142Y-95787144D01*
X119017142Y-95787144D02*
X118944571Y-95980668D01*
X118944571Y-95980668D02*
X118872000Y-96077430D01*
X118872000Y-96077430D02*
X118726857Y-96174191D01*
X118726857Y-96174191D02*
X118291428Y-96174191D01*
X118291428Y-96174191D02*
X118146285Y-96077430D01*
X118146285Y-96077430D02*
X118073714Y-95980668D01*
X119452571Y-94142191D02*
X119960571Y-96174191D01*
X119960571Y-96174191D02*
X120468571Y-94142191D01*
X122065143Y-95593620D02*
X122790858Y-95593620D01*
X121920000Y-96174191D02*
X122428000Y-94142191D01*
X122428000Y-94142191D02*
X122936000Y-96174191D01*
X123444001Y-96174191D02*
X123444001Y-94142191D01*
X123444001Y-94142191D02*
X123806858Y-94142191D01*
X123806858Y-94142191D02*
X124024572Y-94238953D01*
X124024572Y-94238953D02*
X124169715Y-94432477D01*
X124169715Y-94432477D02*
X124242286Y-94626001D01*
X124242286Y-94626001D02*
X124314858Y-95013049D01*
X124314858Y-95013049D02*
X124314858Y-95303334D01*
X124314858Y-95303334D02*
X124242286Y-95690382D01*
X124242286Y-95690382D02*
X124169715Y-95883906D01*
X124169715Y-95883906D02*
X124024572Y-96077430D01*
X124024572Y-96077430D02*
X123806858Y-96174191D01*
X123806858Y-96174191D02*
X123444001Y-96174191D01*
X125403429Y-94142191D02*
X125403429Y-95593620D01*
X125403429Y-95593620D02*
X125330858Y-95883906D01*
X125330858Y-95883906D02*
X125185715Y-96077430D01*
X125185715Y-96077430D02*
X124968001Y-96174191D01*
X124968001Y-96174191D02*
X124822858Y-96174191D01*
X126129144Y-94142191D02*
X126129144Y-95787144D01*
X126129144Y-95787144D02*
X126201715Y-95980668D01*
X126201715Y-95980668D02*
X126274287Y-96077430D01*
X126274287Y-96077430D02*
X126419429Y-96174191D01*
X126419429Y-96174191D02*
X126709715Y-96174191D01*
X126709715Y-96174191D02*
X126854858Y-96077430D01*
X126854858Y-96077430D02*
X126927429Y-95980668D01*
X126927429Y-95980668D02*
X127000001Y-95787144D01*
X127000001Y-95787144D02*
X127000001Y-94142191D01*
X127653143Y-96077430D02*
X127870858Y-96174191D01*
X127870858Y-96174191D02*
X128233715Y-96174191D01*
X128233715Y-96174191D02*
X128378858Y-96077430D01*
X128378858Y-96077430D02*
X128451429Y-95980668D01*
X128451429Y-95980668D02*
X128524000Y-95787144D01*
X128524000Y-95787144D02*
X128524000Y-95593620D01*
X128524000Y-95593620D02*
X128451429Y-95400096D01*
X128451429Y-95400096D02*
X128378858Y-95303334D01*
X128378858Y-95303334D02*
X128233715Y-95206572D01*
X128233715Y-95206572D02*
X127943429Y-95109810D01*
X127943429Y-95109810D02*
X127798286Y-95013049D01*
X127798286Y-95013049D02*
X127725715Y-94916287D01*
X127725715Y-94916287D02*
X127653143Y-94722763D01*
X127653143Y-94722763D02*
X127653143Y-94529239D01*
X127653143Y-94529239D02*
X127725715Y-94335715D01*
X127725715Y-94335715D02*
X127798286Y-94238953D01*
X127798286Y-94238953D02*
X127943429Y-94142191D01*
X127943429Y-94142191D02*
X128306286Y-94142191D01*
X128306286Y-94142191D02*
X128524000Y-94238953D01*
X128959429Y-94142191D02*
X129830287Y-94142191D01*
X129394858Y-96174191D02*
X129394858Y-94142191D01*
D10*
D11*
X112612714Y-133004191D02*
X112612714Y-130972191D01*
X112612714Y-130972191D02*
X113193285Y-130972191D01*
X113193285Y-130972191D02*
X113338428Y-131068953D01*
X113338428Y-131068953D02*
X113410999Y-131165715D01*
X113410999Y-131165715D02*
X113483571Y-131359239D01*
X113483571Y-131359239D02*
X113483571Y-131649525D01*
X113483571Y-131649525D02*
X113410999Y-131843049D01*
X113410999Y-131843049D02*
X113338428Y-131939810D01*
X113338428Y-131939810D02*
X113193285Y-132036572D01*
X113193285Y-132036572D02*
X112612714Y-132036572D01*
X114136714Y-133004191D02*
X114136714Y-130972191D01*
X115733285Y-132810668D02*
X115660713Y-132907430D01*
X115660713Y-132907430D02*
X115442999Y-133004191D01*
X115442999Y-133004191D02*
X115297856Y-133004191D01*
X115297856Y-133004191D02*
X115080142Y-132907430D01*
X115080142Y-132907430D02*
X114934999Y-132713906D01*
X114934999Y-132713906D02*
X114862428Y-132520382D01*
X114862428Y-132520382D02*
X114789856Y-132133334D01*
X114789856Y-132133334D02*
X114789856Y-131843049D01*
X114789856Y-131843049D02*
X114862428Y-131456001D01*
X114862428Y-131456001D02*
X114934999Y-131262477D01*
X114934999Y-131262477D02*
X115080142Y-131068953D01*
X115080142Y-131068953D02*
X115297856Y-130972191D01*
X115297856Y-130972191D02*
X115442999Y-130972191D01*
X115442999Y-130972191D02*
X115660713Y-131068953D01*
X115660713Y-131068953D02*
X115733285Y-131165715D01*
X117547571Y-133004191D02*
X117547571Y-130972191D01*
X117547571Y-130972191D02*
X118128142Y-130972191D01*
X118128142Y-130972191D02*
X118273285Y-131068953D01*
X118273285Y-131068953D02*
X118345856Y-131165715D01*
X118345856Y-131165715D02*
X118418428Y-131359239D01*
X118418428Y-131359239D02*
X118418428Y-131649525D01*
X118418428Y-131649525D02*
X118345856Y-131843049D01*
X118345856Y-131843049D02*
X118273285Y-131939810D01*
X118273285Y-131939810D02*
X118128142Y-132036572D01*
X118128142Y-132036572D02*
X117547571Y-132036572D01*
X119942428Y-133004191D02*
X119434428Y-132036572D01*
X119071571Y-133004191D02*
X119071571Y-130972191D01*
X119071571Y-130972191D02*
X119652142Y-130972191D01*
X119652142Y-130972191D02*
X119797285Y-131068953D01*
X119797285Y-131068953D02*
X119869856Y-131165715D01*
X119869856Y-131165715D02*
X119942428Y-131359239D01*
X119942428Y-131359239D02*
X119942428Y-131649525D01*
X119942428Y-131649525D02*
X119869856Y-131843049D01*
X119869856Y-131843049D02*
X119797285Y-131939810D01*
X119797285Y-131939810D02*
X119652142Y-132036572D01*
X119652142Y-132036572D02*
X119071571Y-132036572D01*
X120885856Y-130972191D02*
X121176142Y-130972191D01*
X121176142Y-130972191D02*
X121321285Y-131068953D01*
X121321285Y-131068953D02*
X121466428Y-131262477D01*
X121466428Y-131262477D02*
X121538999Y-131649525D01*
X121538999Y-131649525D02*
X121538999Y-132326858D01*
X121538999Y-132326858D02*
X121466428Y-132713906D01*
X121466428Y-132713906D02*
X121321285Y-132907430D01*
X121321285Y-132907430D02*
X121176142Y-133004191D01*
X121176142Y-133004191D02*
X120885856Y-133004191D01*
X120885856Y-133004191D02*
X120740714Y-132907430D01*
X120740714Y-132907430D02*
X120595571Y-132713906D01*
X120595571Y-132713906D02*
X120522999Y-132326858D01*
X120522999Y-132326858D02*
X120522999Y-131649525D01*
X120522999Y-131649525D02*
X120595571Y-131262477D01*
X120595571Y-131262477D02*
X120740714Y-131068953D01*
X120740714Y-131068953D02*
X120885856Y-130972191D01*
X122990427Y-131068953D02*
X122845285Y-130972191D01*
X122845285Y-130972191D02*
X122627570Y-130972191D01*
X122627570Y-130972191D02*
X122409856Y-131068953D01*
X122409856Y-131068953D02*
X122264713Y-131262477D01*
X122264713Y-131262477D02*
X122192142Y-131456001D01*
X122192142Y-131456001D02*
X122119570Y-131843049D01*
X122119570Y-131843049D02*
X122119570Y-132133334D01*
X122119570Y-132133334D02*
X122192142Y-132520382D01*
X122192142Y-132520382D02*
X122264713Y-132713906D01*
X122264713Y-132713906D02*
X122409856Y-132907430D01*
X122409856Y-132907430D02*
X122627570Y-133004191D01*
X122627570Y-133004191D02*
X122772713Y-133004191D01*
X122772713Y-133004191D02*
X122990427Y-132907430D01*
X122990427Y-132907430D02*
X123062999Y-132810668D01*
X123062999Y-132810668D02*
X123062999Y-132133334D01*
X123062999Y-132133334D02*
X122772713Y-132133334D01*
X124586999Y-133004191D02*
X124078999Y-132036572D01*
X123716142Y-133004191D02*
X123716142Y-130972191D01*
X123716142Y-130972191D02*
X124296713Y-130972191D01*
X124296713Y-130972191D02*
X124441856Y-131068953D01*
X124441856Y-131068953D02*
X124514427Y-131165715D01*
X124514427Y-131165715D02*
X124586999Y-131359239D01*
X124586999Y-131359239D02*
X124586999Y-131649525D01*
X124586999Y-131649525D02*
X124514427Y-131843049D01*
X124514427Y-131843049D02*
X124441856Y-131939810D01*
X124441856Y-131939810D02*
X124296713Y-132036572D01*
X124296713Y-132036572D02*
X123716142Y-132036572D01*
X125167570Y-132423620D02*
X125893285Y-132423620D01*
X125022427Y-133004191D02*
X125530427Y-130972191D01*
X125530427Y-130972191D02*
X126038427Y-133004191D01*
X126546428Y-133004191D02*
X126546428Y-130972191D01*
X126546428Y-130972191D02*
X127054428Y-132423620D01*
X127054428Y-132423620D02*
X127562428Y-130972191D01*
X127562428Y-130972191D02*
X127562428Y-133004191D01*
X128288142Y-133004191D02*
X128288142Y-130972191D01*
X128288142Y-130972191D02*
X128796142Y-132423620D01*
X128796142Y-132423620D02*
X129304142Y-130972191D01*
X129304142Y-130972191D02*
X129304142Y-133004191D01*
X130029856Y-131939810D02*
X130537856Y-131939810D01*
X130755570Y-133004191D02*
X130029856Y-133004191D01*
X130029856Y-133004191D02*
X130029856Y-130972191D01*
X130029856Y-130972191D02*
X130755570Y-130972191D01*
X132279570Y-133004191D02*
X131771570Y-132036572D01*
X131408713Y-133004191D02*
X131408713Y-130972191D01*
X131408713Y-130972191D02*
X131989284Y-130972191D01*
X131989284Y-130972191D02*
X132134427Y-131068953D01*
X132134427Y-131068953D02*
X132206998Y-131165715D01*
X132206998Y-131165715D02*
X132279570Y-131359239D01*
X132279570Y-131359239D02*
X132279570Y-131649525D01*
X132279570Y-131649525D02*
X132206998Y-131843049D01*
X132206998Y-131843049D02*
X132134427Y-131939810D01*
X132134427Y-131939810D02*
X131989284Y-132036572D01*
X131989284Y-132036572D02*
X131408713Y-132036572D01*
X133876141Y-130972191D02*
X134384141Y-133004191D01*
X134384141Y-133004191D02*
X134892141Y-130972191D01*
X135690427Y-130972191D02*
X135835570Y-130972191D01*
X135835570Y-130972191D02*
X135980713Y-131068953D01*
X135980713Y-131068953D02*
X136053285Y-131165715D01*
X136053285Y-131165715D02*
X136125856Y-131359239D01*
X136125856Y-131359239D02*
X136198427Y-131746287D01*
X136198427Y-131746287D02*
X136198427Y-132230096D01*
X136198427Y-132230096D02*
X136125856Y-132617144D01*
X136125856Y-132617144D02*
X136053285Y-132810668D01*
X136053285Y-132810668D02*
X135980713Y-132907430D01*
X135980713Y-132907430D02*
X135835570Y-133004191D01*
X135835570Y-133004191D02*
X135690427Y-133004191D01*
X135690427Y-133004191D02*
X135545285Y-132907430D01*
X135545285Y-132907430D02*
X135472713Y-132810668D01*
X135472713Y-132810668D02*
X135400142Y-132617144D01*
X135400142Y-132617144D02*
X135327570Y-132230096D01*
X135327570Y-132230096D02*
X135327570Y-131746287D01*
X135327570Y-131746287D02*
X135400142Y-131359239D01*
X135400142Y-131359239D02*
X135472713Y-131165715D01*
X135472713Y-131165715D02*
X135545285Y-131068953D01*
X135545285Y-131068953D02*
X135690427Y-130972191D01*
X136706428Y-130972191D02*
X137649856Y-130972191D01*
X137649856Y-130972191D02*
X137141856Y-131746287D01*
X137141856Y-131746287D02*
X137359571Y-131746287D01*
X137359571Y-131746287D02*
X137504714Y-131843049D01*
X137504714Y-131843049D02*
X137577285Y-131939810D01*
X137577285Y-131939810D02*
X137649856Y-132133334D01*
X137649856Y-132133334D02*
X137649856Y-132617144D01*
X137649856Y-132617144D02*
X137577285Y-132810668D01*
X137577285Y-132810668D02*
X137504714Y-132907430D01*
X137504714Y-132907430D02*
X137359571Y-133004191D01*
X137359571Y-133004191D02*
X136924142Y-133004191D01*
X136924142Y-133004191D02*
X136778999Y-132907430D01*
X136778999Y-132907430D02*
X136706428Y-132810668D01*
D10*
D11*
X158690857Y-97992191D02*
X159198857Y-100024191D01*
X159198857Y-100024191D02*
X159706857Y-97992191D01*
X161085715Y-99830668D02*
X161013143Y-99927430D01*
X161013143Y-99927430D02*
X160795429Y-100024191D01*
X160795429Y-100024191D02*
X160650286Y-100024191D01*
X160650286Y-100024191D02*
X160432572Y-99927430D01*
X160432572Y-99927430D02*
X160287429Y-99733906D01*
X160287429Y-99733906D02*
X160214858Y-99540382D01*
X160214858Y-99540382D02*
X160142286Y-99153334D01*
X160142286Y-99153334D02*
X160142286Y-98863049D01*
X160142286Y-98863049D02*
X160214858Y-98476001D01*
X160214858Y-98476001D02*
X160287429Y-98282477D01*
X160287429Y-98282477D02*
X160432572Y-98088953D01*
X160432572Y-98088953D02*
X160650286Y-97992191D01*
X160650286Y-97992191D02*
X160795429Y-97992191D01*
X160795429Y-97992191D02*
X161013143Y-98088953D01*
X161013143Y-98088953D02*
X161085715Y-98185715D01*
X162609715Y-99830668D02*
X162537143Y-99927430D01*
X162537143Y-99927430D02*
X162319429Y-100024191D01*
X162319429Y-100024191D02*
X162174286Y-100024191D01*
X162174286Y-100024191D02*
X161956572Y-99927430D01*
X161956572Y-99927430D02*
X161811429Y-99733906D01*
X161811429Y-99733906D02*
X161738858Y-99540382D01*
X161738858Y-99540382D02*
X161666286Y-99153334D01*
X161666286Y-99153334D02*
X161666286Y-98863049D01*
X161666286Y-98863049D02*
X161738858Y-98476001D01*
X161738858Y-98476001D02*
X161811429Y-98282477D01*
X161811429Y-98282477D02*
X161956572Y-98088953D01*
X161956572Y-98088953D02*
X162174286Y-97992191D01*
X162174286Y-97992191D02*
X162319429Y-97992191D01*
X162319429Y-97992191D02*
X162537143Y-98088953D01*
X162537143Y-98088953D02*
X162609715Y-98185715D01*
X164714286Y-97992191D02*
X165004572Y-97992191D01*
X165004572Y-97992191D02*
X165149715Y-98088953D01*
X165149715Y-98088953D02*
X165294858Y-98282477D01*
X165294858Y-98282477D02*
X165367429Y-98669525D01*
X165367429Y-98669525D02*
X165367429Y-99346858D01*
X165367429Y-99346858D02*
X165294858Y-99733906D01*
X165294858Y-99733906D02*
X165149715Y-99927430D01*
X165149715Y-99927430D02*
X165004572Y-100024191D01*
X165004572Y-100024191D02*
X164714286Y-100024191D01*
X164714286Y-100024191D02*
X164569144Y-99927430D01*
X164569144Y-99927430D02*
X164424001Y-99733906D01*
X164424001Y-99733906D02*
X164351429Y-99346858D01*
X164351429Y-99346858D02*
X164351429Y-98669525D01*
X164351429Y-98669525D02*
X164424001Y-98282477D01*
X164424001Y-98282477D02*
X164569144Y-98088953D01*
X164569144Y-98088953D02*
X164714286Y-97992191D01*
X166020572Y-100024191D02*
X166020572Y-97992191D01*
X166020572Y-97992191D02*
X166891429Y-100024191D01*
X166891429Y-100024191D02*
X166891429Y-97992191D01*
D10*
D11*
X158985857Y-79537191D02*
X159493857Y-81569191D01*
X159493857Y-81569191D02*
X160001857Y-79537191D01*
X160509858Y-81569191D02*
X160509858Y-79537191D01*
X160509858Y-79537191D02*
X161090429Y-79537191D01*
X161090429Y-79537191D02*
X161235572Y-79633953D01*
X161235572Y-79633953D02*
X161308143Y-79730715D01*
X161308143Y-79730715D02*
X161380715Y-79924239D01*
X161380715Y-79924239D02*
X161380715Y-80214525D01*
X161380715Y-80214525D02*
X161308143Y-80408049D01*
X161308143Y-80408049D02*
X161235572Y-80504810D01*
X161235572Y-80504810D02*
X161090429Y-80601572D01*
X161090429Y-80601572D02*
X160509858Y-80601572D01*
X162033858Y-81569191D02*
X162033858Y-79537191D01*
X162033858Y-79537191D02*
X162614429Y-79537191D01*
X162614429Y-79537191D02*
X162759572Y-79633953D01*
X162759572Y-79633953D02*
X162832143Y-79730715D01*
X162832143Y-79730715D02*
X162904715Y-79924239D01*
X162904715Y-79924239D02*
X162904715Y-80214525D01*
X162904715Y-80214525D02*
X162832143Y-80408049D01*
X162832143Y-80408049D02*
X162759572Y-80504810D01*
X162759572Y-80504810D02*
X162614429Y-80601572D01*
X162614429Y-80601572D02*
X162033858Y-80601572D01*
X165009286Y-79537191D02*
X165299572Y-79537191D01*
X165299572Y-79537191D02*
X165444715Y-79633953D01*
X165444715Y-79633953D02*
X165589858Y-79827477D01*
X165589858Y-79827477D02*
X165662429Y-80214525D01*
X165662429Y-80214525D02*
X165662429Y-80891858D01*
X165662429Y-80891858D02*
X165589858Y-81278906D01*
X165589858Y-81278906D02*
X165444715Y-81472430D01*
X165444715Y-81472430D02*
X165299572Y-81569191D01*
X165299572Y-81569191D02*
X165009286Y-81569191D01*
X165009286Y-81569191D02*
X164864144Y-81472430D01*
X164864144Y-81472430D02*
X164719001Y-81278906D01*
X164719001Y-81278906D02*
X164646429Y-80891858D01*
X164646429Y-80891858D02*
X164646429Y-80214525D01*
X164646429Y-80214525D02*
X164719001Y-79827477D01*
X164719001Y-79827477D02*
X164864144Y-79633953D01*
X164864144Y-79633953D02*
X165009286Y-79537191D01*
X166315572Y-81569191D02*
X166315572Y-79537191D01*
X166315572Y-79537191D02*
X167186429Y-81569191D01*
X167186429Y-81569191D02*
X167186429Y-79537191D01*
D10*
D11*
X159620858Y-89824191D02*
X159620858Y-87792191D01*
X159620858Y-87792191D02*
X160201429Y-87792191D01*
X160201429Y-87792191D02*
X160346572Y-87888953D01*
X160346572Y-87888953D02*
X160419143Y-87985715D01*
X160419143Y-87985715D02*
X160491715Y-88179239D01*
X160491715Y-88179239D02*
X160491715Y-88469525D01*
X160491715Y-88469525D02*
X160419143Y-88663049D01*
X160419143Y-88663049D02*
X160346572Y-88759810D01*
X160346572Y-88759810D02*
X160201429Y-88856572D01*
X160201429Y-88856572D02*
X159620858Y-88856572D01*
X160999715Y-87792191D02*
X161362572Y-89824191D01*
X161362572Y-89824191D02*
X161652858Y-88372763D01*
X161652858Y-88372763D02*
X161943143Y-89824191D01*
X161943143Y-89824191D02*
X162306001Y-87792191D01*
X163757429Y-89824191D02*
X163249429Y-88856572D01*
X162886572Y-89824191D02*
X162886572Y-87792191D01*
X162886572Y-87792191D02*
X163467143Y-87792191D01*
X163467143Y-87792191D02*
X163612286Y-87888953D01*
X163612286Y-87888953D02*
X163684857Y-87985715D01*
X163684857Y-87985715D02*
X163757429Y-88179239D01*
X163757429Y-88179239D02*
X163757429Y-88469525D01*
X163757429Y-88469525D02*
X163684857Y-88663049D01*
X163684857Y-88663049D02*
X163612286Y-88759810D01*
X163612286Y-88759810D02*
X163467143Y-88856572D01*
X163467143Y-88856572D02*
X162886572Y-88856572D01*
X165862000Y-87792191D02*
X166152286Y-87792191D01*
X166152286Y-87792191D02*
X166297429Y-87888953D01*
X166297429Y-87888953D02*
X166442572Y-88082477D01*
X166442572Y-88082477D02*
X166515143Y-88469525D01*
X166515143Y-88469525D02*
X166515143Y-89146858D01*
X166515143Y-89146858D02*
X166442572Y-89533906D01*
X166442572Y-89533906D02*
X166297429Y-89727430D01*
X166297429Y-89727430D02*
X166152286Y-89824191D01*
X166152286Y-89824191D02*
X165862000Y-89824191D01*
X165862000Y-89824191D02*
X165716858Y-89727430D01*
X165716858Y-89727430D02*
X165571715Y-89533906D01*
X165571715Y-89533906D02*
X165499143Y-89146858D01*
X165499143Y-89146858D02*
X165499143Y-88469525D01*
X165499143Y-88469525D02*
X165571715Y-88082477D01*
X165571715Y-88082477D02*
X165716858Y-87888953D01*
X165716858Y-87888953D02*
X165862000Y-87792191D01*
X167168286Y-89824191D02*
X167168286Y-87792191D01*
X167168286Y-87792191D02*
X168039143Y-89824191D01*
X168039143Y-89824191D02*
X168039143Y-87792191D01*
D10*
D11*
X161108572Y-115224191D02*
X161108572Y-113192191D01*
X161761714Y-113385715D02*
X161834286Y-113288953D01*
X161834286Y-113288953D02*
X161979429Y-113192191D01*
X161979429Y-113192191D02*
X162342286Y-113192191D01*
X162342286Y-113192191D02*
X162487429Y-113288953D01*
X162487429Y-113288953D02*
X162560000Y-113385715D01*
X162560000Y-113385715D02*
X162632571Y-113579239D01*
X162632571Y-113579239D02*
X162632571Y-113772763D01*
X162632571Y-113772763D02*
X162560000Y-114063049D01*
X162560000Y-114063049D02*
X161689143Y-115224191D01*
X161689143Y-115224191D02*
X162632571Y-115224191D01*
X164156572Y-115030668D02*
X164084000Y-115127430D01*
X164084000Y-115127430D02*
X163866286Y-115224191D01*
X163866286Y-115224191D02*
X163721143Y-115224191D01*
X163721143Y-115224191D02*
X163503429Y-115127430D01*
X163503429Y-115127430D02*
X163358286Y-114933906D01*
X163358286Y-114933906D02*
X163285715Y-114740382D01*
X163285715Y-114740382D02*
X163213143Y-114353334D01*
X163213143Y-114353334D02*
X163213143Y-114063049D01*
X163213143Y-114063049D02*
X163285715Y-113676001D01*
X163285715Y-113676001D02*
X163358286Y-113482477D01*
X163358286Y-113482477D02*
X163503429Y-113288953D01*
X163503429Y-113288953D02*
X163721143Y-113192191D01*
X163721143Y-113192191D02*
X163866286Y-113192191D01*
X163866286Y-113192191D02*
X164084000Y-113288953D01*
X164084000Y-113288953D02*
X164156572Y-113385715D01*
X165970858Y-115224191D02*
X165970858Y-113192191D01*
X165970858Y-113192191D02*
X166551429Y-113192191D01*
X166551429Y-113192191D02*
X166696572Y-113288953D01*
X166696572Y-113288953D02*
X166769143Y-113385715D01*
X166769143Y-113385715D02*
X166841715Y-113579239D01*
X166841715Y-113579239D02*
X166841715Y-113869525D01*
X166841715Y-113869525D02*
X166769143Y-114063049D01*
X166769143Y-114063049D02*
X166696572Y-114159810D01*
X166696572Y-114159810D02*
X166551429Y-114256572D01*
X166551429Y-114256572D02*
X165970858Y-114256572D01*
X168365715Y-115224191D02*
X167857715Y-114256572D01*
X167494858Y-115224191D02*
X167494858Y-113192191D01*
X167494858Y-113192191D02*
X168075429Y-113192191D01*
X168075429Y-113192191D02*
X168220572Y-113288953D01*
X168220572Y-113288953D02*
X168293143Y-113385715D01*
X168293143Y-113385715D02*
X168365715Y-113579239D01*
X168365715Y-113579239D02*
X168365715Y-113869525D01*
X168365715Y-113869525D02*
X168293143Y-114063049D01*
X168293143Y-114063049D02*
X168220572Y-114159810D01*
X168220572Y-114159810D02*
X168075429Y-114256572D01*
X168075429Y-114256572D02*
X167494858Y-114256572D01*
X169309143Y-113192191D02*
X169599429Y-113192191D01*
X169599429Y-113192191D02*
X169744572Y-113288953D01*
X169744572Y-113288953D02*
X169889715Y-113482477D01*
X169889715Y-113482477D02*
X169962286Y-113869525D01*
X169962286Y-113869525D02*
X169962286Y-114546858D01*
X169962286Y-114546858D02*
X169889715Y-114933906D01*
X169889715Y-114933906D02*
X169744572Y-115127430D01*
X169744572Y-115127430D02*
X169599429Y-115224191D01*
X169599429Y-115224191D02*
X169309143Y-115224191D01*
X169309143Y-115224191D02*
X169164001Y-115127430D01*
X169164001Y-115127430D02*
X169018858Y-114933906D01*
X169018858Y-114933906D02*
X168946286Y-114546858D01*
X168946286Y-114546858D02*
X168946286Y-113869525D01*
X168946286Y-113869525D02*
X169018858Y-113482477D01*
X169018858Y-113482477D02*
X169164001Y-113288953D01*
X169164001Y-113288953D02*
X169309143Y-113192191D01*
X170615429Y-115224191D02*
X170615429Y-113192191D01*
X170615429Y-113192191D02*
X171123429Y-114643620D01*
X171123429Y-114643620D02*
X171631429Y-113192191D01*
X171631429Y-113192191D02*
X171631429Y-115224191D01*
D10*
D11*
X165245142Y-49819191D02*
X164374285Y-49819191D01*
X164809714Y-49819191D02*
X164809714Y-47787191D01*
X164809714Y-47787191D02*
X164664571Y-48077477D01*
X164664571Y-48077477D02*
X164519428Y-48271001D01*
X164519428Y-48271001D02*
X164374285Y-48367763D01*
X165898286Y-48754810D02*
X167059429Y-48754810D01*
X167059429Y-49335382D02*
X165898286Y-49335382D01*
X167785143Y-48464525D02*
X168946286Y-49045096D01*
X168946286Y-49045096D02*
X167785143Y-49625668D01*
X169672000Y-48464525D02*
X170833143Y-49045096D01*
X170833143Y-49045096D02*
X169672000Y-49625668D01*
D10*
D11*
X169055142Y-110144191D02*
X168184285Y-110144191D01*
X168619714Y-110144191D02*
X168619714Y-108112191D01*
X168619714Y-108112191D02*
X168474571Y-108402477D01*
X168474571Y-108402477D02*
X168329428Y-108596001D01*
X168329428Y-108596001D02*
X168184285Y-108692763D01*
X169708286Y-109079810D02*
X170869429Y-109079810D01*
X170869429Y-109660382D02*
X169708286Y-109660382D01*
X171595143Y-108789525D02*
X172756286Y-109370096D01*
X172756286Y-109370096D02*
X171595143Y-109950668D01*
X173482000Y-108789525D02*
X174643143Y-109370096D01*
X174643143Y-109370096D02*
X173482000Y-109950668D01*
D10*
D11*
X169055142Y-121574191D02*
X168184285Y-121574191D01*
X168619714Y-121574191D02*
X168619714Y-119542191D01*
X168619714Y-119542191D02*
X168474571Y-119832477D01*
X168474571Y-119832477D02*
X168329428Y-120026001D01*
X168329428Y-120026001D02*
X168184285Y-120122763D01*
X169708286Y-120509810D02*
X170869429Y-120509810D01*
X170869429Y-121090382D02*
X169708286Y-121090382D01*
X171595143Y-120219525D02*
X172756286Y-120800096D01*
X172756286Y-120800096D02*
X171595143Y-121380668D01*
X173482000Y-120219525D02*
X174643143Y-120800096D01*
X174643143Y-120800096D02*
X173482000Y-121380668D01*
D10*
D11*
X175459571Y-46009191D02*
X175459571Y-43977191D01*
X175459571Y-43977191D02*
X176040142Y-43977191D01*
X176040142Y-43977191D02*
X176185285Y-44073953D01*
X176185285Y-44073953D02*
X176257856Y-44170715D01*
X176257856Y-44170715D02*
X176330428Y-44364239D01*
X176330428Y-44364239D02*
X176330428Y-44654525D01*
X176330428Y-44654525D02*
X176257856Y-44848049D01*
X176257856Y-44848049D02*
X176185285Y-44944810D01*
X176185285Y-44944810D02*
X176040142Y-45041572D01*
X176040142Y-45041572D02*
X175459571Y-45041572D01*
X176983571Y-46009191D02*
X176983571Y-43977191D01*
X178580142Y-45815668D02*
X178507570Y-45912430D01*
X178507570Y-45912430D02*
X178289856Y-46009191D01*
X178289856Y-46009191D02*
X178144713Y-46009191D01*
X178144713Y-46009191D02*
X177926999Y-45912430D01*
X177926999Y-45912430D02*
X177781856Y-45718906D01*
X177781856Y-45718906D02*
X177709285Y-45525382D01*
X177709285Y-45525382D02*
X177636713Y-45138334D01*
X177636713Y-45138334D02*
X177636713Y-44848049D01*
X177636713Y-44848049D02*
X177709285Y-44461001D01*
X177709285Y-44461001D02*
X177781856Y-44267477D01*
X177781856Y-44267477D02*
X177926999Y-44073953D01*
X177926999Y-44073953D02*
X178144713Y-43977191D01*
X178144713Y-43977191D02*
X178289856Y-43977191D01*
X178289856Y-43977191D02*
X178507570Y-44073953D01*
X178507570Y-44073953D02*
X178580142Y-44170715D01*
X181047571Y-44654525D02*
X181047571Y-46009191D01*
X180684713Y-43880430D02*
X180321856Y-45331858D01*
X180321856Y-45331858D02*
X181265285Y-45331858D01*
X182136142Y-43977191D02*
X182281285Y-43977191D01*
X182281285Y-43977191D02*
X182426428Y-44073953D01*
X182426428Y-44073953D02*
X182499000Y-44170715D01*
X182499000Y-44170715D02*
X182571571Y-44364239D01*
X182571571Y-44364239D02*
X182644142Y-44751287D01*
X182644142Y-44751287D02*
X182644142Y-45235096D01*
X182644142Y-45235096D02*
X182571571Y-45622144D01*
X182571571Y-45622144D02*
X182499000Y-45815668D01*
X182499000Y-45815668D02*
X182426428Y-45912430D01*
X182426428Y-45912430D02*
X182281285Y-46009191D01*
X182281285Y-46009191D02*
X182136142Y-46009191D01*
X182136142Y-46009191D02*
X181991000Y-45912430D01*
X181991000Y-45912430D02*
X181918428Y-45815668D01*
X181918428Y-45815668D02*
X181845857Y-45622144D01*
X181845857Y-45622144D02*
X181773285Y-45235096D01*
X181773285Y-45235096D02*
X181773285Y-44751287D01*
X181773285Y-44751287D02*
X181845857Y-44364239D01*
X181845857Y-44364239D02*
X181918428Y-44170715D01*
X181918428Y-44170715D02*
X181991000Y-44073953D01*
X181991000Y-44073953D02*
X182136142Y-43977191D01*
X184458429Y-46009191D02*
X184458429Y-43977191D01*
X184458429Y-43977191D02*
X185039000Y-43977191D01*
X185039000Y-43977191D02*
X185184143Y-44073953D01*
X185184143Y-44073953D02*
X185256714Y-44170715D01*
X185256714Y-44170715D02*
X185329286Y-44364239D01*
X185329286Y-44364239D02*
X185329286Y-44654525D01*
X185329286Y-44654525D02*
X185256714Y-44848049D01*
X185256714Y-44848049D02*
X185184143Y-44944810D01*
X185184143Y-44944810D02*
X185039000Y-45041572D01*
X185039000Y-45041572D02*
X184458429Y-45041572D01*
X185982429Y-46009191D02*
X185982429Y-43977191D01*
X186708143Y-46009191D02*
X186708143Y-43977191D01*
X186708143Y-43977191D02*
X187579000Y-46009191D01*
X187579000Y-46009191D02*
X187579000Y-43977191D01*
X188232142Y-45912430D02*
X188449857Y-46009191D01*
X188449857Y-46009191D02*
X188812714Y-46009191D01*
X188812714Y-46009191D02*
X188957857Y-45912430D01*
X188957857Y-45912430D02*
X189030428Y-45815668D01*
X189030428Y-45815668D02*
X189102999Y-45622144D01*
X189102999Y-45622144D02*
X189102999Y-45428620D01*
X189102999Y-45428620D02*
X189030428Y-45235096D01*
X189030428Y-45235096D02*
X188957857Y-45138334D01*
X188957857Y-45138334D02*
X188812714Y-45041572D01*
X188812714Y-45041572D02*
X188522428Y-44944810D01*
X188522428Y-44944810D02*
X188377285Y-44848049D01*
X188377285Y-44848049D02*
X188304714Y-44751287D01*
X188304714Y-44751287D02*
X188232142Y-44557763D01*
X188232142Y-44557763D02*
X188232142Y-44364239D01*
X188232142Y-44364239D02*
X188304714Y-44170715D01*
X188304714Y-44170715D02*
X188377285Y-44073953D01*
X188377285Y-44073953D02*
X188522428Y-43977191D01*
X188522428Y-43977191D02*
X188885285Y-43977191D01*
X188885285Y-43977191D02*
X189102999Y-44073953D01*
D10*
D11*
X177455286Y-133004191D02*
X177455286Y-130972191D01*
X177455286Y-130972191D02*
X178035857Y-130972191D01*
X178035857Y-130972191D02*
X178181000Y-131068953D01*
X178181000Y-131068953D02*
X178253571Y-131165715D01*
X178253571Y-131165715D02*
X178326143Y-131359239D01*
X178326143Y-131359239D02*
X178326143Y-131649525D01*
X178326143Y-131649525D02*
X178253571Y-131843049D01*
X178253571Y-131843049D02*
X178181000Y-131939810D01*
X178181000Y-131939810D02*
X178035857Y-132036572D01*
X178035857Y-132036572D02*
X177455286Y-132036572D01*
X178979286Y-133004191D02*
X178979286Y-130972191D01*
X180575857Y-132810668D02*
X180503285Y-132907430D01*
X180503285Y-132907430D02*
X180285571Y-133004191D01*
X180285571Y-133004191D02*
X180140428Y-133004191D01*
X180140428Y-133004191D02*
X179922714Y-132907430D01*
X179922714Y-132907430D02*
X179777571Y-132713906D01*
X179777571Y-132713906D02*
X179705000Y-132520382D01*
X179705000Y-132520382D02*
X179632428Y-132133334D01*
X179632428Y-132133334D02*
X179632428Y-131843049D01*
X179632428Y-131843049D02*
X179705000Y-131456001D01*
X179705000Y-131456001D02*
X179777571Y-131262477D01*
X179777571Y-131262477D02*
X179922714Y-131068953D01*
X179922714Y-131068953D02*
X180140428Y-130972191D01*
X180140428Y-130972191D02*
X180285571Y-130972191D01*
X180285571Y-130972191D02*
X180503285Y-131068953D01*
X180503285Y-131068953D02*
X180575857Y-131165715D01*
X182607857Y-131843049D02*
X182462714Y-131746287D01*
X182462714Y-131746287D02*
X182390143Y-131649525D01*
X182390143Y-131649525D02*
X182317571Y-131456001D01*
X182317571Y-131456001D02*
X182317571Y-131359239D01*
X182317571Y-131359239D02*
X182390143Y-131165715D01*
X182390143Y-131165715D02*
X182462714Y-131068953D01*
X182462714Y-131068953D02*
X182607857Y-130972191D01*
X182607857Y-130972191D02*
X182898143Y-130972191D01*
X182898143Y-130972191D02*
X183043286Y-131068953D01*
X183043286Y-131068953D02*
X183115857Y-131165715D01*
X183115857Y-131165715D02*
X183188428Y-131359239D01*
X183188428Y-131359239D02*
X183188428Y-131456001D01*
X183188428Y-131456001D02*
X183115857Y-131649525D01*
X183115857Y-131649525D02*
X183043286Y-131746287D01*
X183043286Y-131746287D02*
X182898143Y-131843049D01*
X182898143Y-131843049D02*
X182607857Y-131843049D01*
X182607857Y-131843049D02*
X182462714Y-131939810D01*
X182462714Y-131939810D02*
X182390143Y-132036572D01*
X182390143Y-132036572D02*
X182317571Y-132230096D01*
X182317571Y-132230096D02*
X182317571Y-132617144D01*
X182317571Y-132617144D02*
X182390143Y-132810668D01*
X182390143Y-132810668D02*
X182462714Y-132907430D01*
X182462714Y-132907430D02*
X182607857Y-133004191D01*
X182607857Y-133004191D02*
X182898143Y-133004191D01*
X182898143Y-133004191D02*
X183043286Y-132907430D01*
X183043286Y-132907430D02*
X183115857Y-132810668D01*
X183115857Y-132810668D02*
X183188428Y-132617144D01*
X183188428Y-132617144D02*
X183188428Y-132230096D01*
X183188428Y-132230096D02*
X183115857Y-132036572D01*
X183115857Y-132036572D02*
X183043286Y-131939810D01*
X183043286Y-131939810D02*
X182898143Y-131843049D01*
X185002715Y-133004191D02*
X185002715Y-130972191D01*
X185002715Y-130972191D02*
X185583286Y-130972191D01*
X185583286Y-130972191D02*
X185728429Y-131068953D01*
X185728429Y-131068953D02*
X185801000Y-131165715D01*
X185801000Y-131165715D02*
X185873572Y-131359239D01*
X185873572Y-131359239D02*
X185873572Y-131649525D01*
X185873572Y-131649525D02*
X185801000Y-131843049D01*
X185801000Y-131843049D02*
X185728429Y-131939810D01*
X185728429Y-131939810D02*
X185583286Y-132036572D01*
X185583286Y-132036572D02*
X185002715Y-132036572D01*
X186526715Y-133004191D02*
X186526715Y-130972191D01*
X187252429Y-133004191D02*
X187252429Y-130972191D01*
X187252429Y-130972191D02*
X188123286Y-133004191D01*
X188123286Y-133004191D02*
X188123286Y-130972191D01*
X188776428Y-132907430D02*
X188994143Y-133004191D01*
X188994143Y-133004191D02*
X189357000Y-133004191D01*
X189357000Y-133004191D02*
X189502143Y-132907430D01*
X189502143Y-132907430D02*
X189574714Y-132810668D01*
X189574714Y-132810668D02*
X189647285Y-132617144D01*
X189647285Y-132617144D02*
X189647285Y-132423620D01*
X189647285Y-132423620D02*
X189574714Y-132230096D01*
X189574714Y-132230096D02*
X189502143Y-132133334D01*
X189502143Y-132133334D02*
X189357000Y-132036572D01*
X189357000Y-132036572D02*
X189066714Y-131939810D01*
X189066714Y-131939810D02*
X188921571Y-131843049D01*
X188921571Y-131843049D02*
X188849000Y-131746287D01*
X188849000Y-131746287D02*
X188776428Y-131552763D01*
X188776428Y-131552763D02*
X188776428Y-131359239D01*
X188776428Y-131359239D02*
X188849000Y-131165715D01*
X188849000Y-131165715D02*
X188921571Y-131068953D01*
X188921571Y-131068953D02*
X189066714Y-130972191D01*
X189066714Y-130972191D02*
X189429571Y-130972191D01*
X189429571Y-130972191D02*
X189647285Y-131068953D01*
D10*
D11*
X198265142Y-108874191D02*
X197394285Y-108874191D01*
X197829714Y-108874191D02*
X197829714Y-106842191D01*
X197829714Y-106842191D02*
X197684571Y-107132477D01*
X197684571Y-107132477D02*
X197539428Y-107326001D01*
X197539428Y-107326001D02*
X197394285Y-107422763D01*
X198918286Y-107809810D02*
X200079429Y-107809810D01*
X200079429Y-108390382D02*
X198918286Y-108390382D01*
X200805143Y-107519525D02*
X201966286Y-108100096D01*
X201966286Y-108100096D02*
X200805143Y-108680668D01*
X202692000Y-107519525D02*
X203853143Y-108100096D01*
X203853143Y-108100096D02*
X202692000Y-108680668D01*
D10*
D11*
X199605142Y-49624191D02*
X198734285Y-49624191D01*
X199169714Y-49624191D02*
X199169714Y-47592191D01*
X199169714Y-47592191D02*
X199024571Y-47882477D01*
X199024571Y-47882477D02*
X198879428Y-48076001D01*
X198879428Y-48076001D02*
X198734285Y-48172763D01*
X200258286Y-48559810D02*
X201419429Y-48559810D01*
X201419429Y-49140382D02*
X200258286Y-49140382D01*
X202145143Y-48269525D02*
X203306286Y-48850096D01*
X203306286Y-48850096D02*
X202145143Y-49430668D01*
X204032000Y-48269525D02*
X205193143Y-48850096D01*
X205193143Y-48850096D02*
X204032000Y-49430668D01*
D10*
D11*
X204669571Y-133639191D02*
X204669571Y-131607191D01*
X204669571Y-131607191D02*
X205250142Y-131607191D01*
X205250142Y-131607191D02*
X205395285Y-131703953D01*
X205395285Y-131703953D02*
X205467856Y-131800715D01*
X205467856Y-131800715D02*
X205540428Y-131994239D01*
X205540428Y-131994239D02*
X205540428Y-132284525D01*
X205540428Y-132284525D02*
X205467856Y-132478049D01*
X205467856Y-132478049D02*
X205395285Y-132574810D01*
X205395285Y-132574810D02*
X205250142Y-132671572D01*
X205250142Y-132671572D02*
X204669571Y-132671572D01*
X206193571Y-133639191D02*
X206193571Y-131607191D01*
X207790142Y-133445668D02*
X207717570Y-133542430D01*
X207717570Y-133542430D02*
X207499856Y-133639191D01*
X207499856Y-133639191D02*
X207354713Y-133639191D01*
X207354713Y-133639191D02*
X207136999Y-133542430D01*
X207136999Y-133542430D02*
X206991856Y-133348906D01*
X206991856Y-133348906D02*
X206919285Y-133155382D01*
X206919285Y-133155382D02*
X206846713Y-132768334D01*
X206846713Y-132768334D02*
X206846713Y-132478049D01*
X206846713Y-132478049D02*
X206919285Y-132091001D01*
X206919285Y-132091001D02*
X206991856Y-131897477D01*
X206991856Y-131897477D02*
X207136999Y-131703953D01*
X207136999Y-131703953D02*
X207354713Y-131607191D01*
X207354713Y-131607191D02*
X207499856Y-131607191D01*
X207499856Y-131607191D02*
X207717570Y-131703953D01*
X207717570Y-131703953D02*
X207790142Y-131800715D01*
X210402713Y-133639191D02*
X209531856Y-133639191D01*
X209967285Y-133639191D02*
X209967285Y-131607191D01*
X209967285Y-131607191D02*
X209822142Y-131897477D01*
X209822142Y-131897477D02*
X209676999Y-132091001D01*
X209676999Y-132091001D02*
X209531856Y-132187763D01*
X211273571Y-132478049D02*
X211128428Y-132381287D01*
X211128428Y-132381287D02*
X211055857Y-132284525D01*
X211055857Y-132284525D02*
X210983285Y-132091001D01*
X210983285Y-132091001D02*
X210983285Y-131994239D01*
X210983285Y-131994239D02*
X211055857Y-131800715D01*
X211055857Y-131800715D02*
X211128428Y-131703953D01*
X211128428Y-131703953D02*
X211273571Y-131607191D01*
X211273571Y-131607191D02*
X211563857Y-131607191D01*
X211563857Y-131607191D02*
X211709000Y-131703953D01*
X211709000Y-131703953D02*
X211781571Y-131800715D01*
X211781571Y-131800715D02*
X211854142Y-131994239D01*
X211854142Y-131994239D02*
X211854142Y-132091001D01*
X211854142Y-132091001D02*
X211781571Y-132284525D01*
X211781571Y-132284525D02*
X211709000Y-132381287D01*
X211709000Y-132381287D02*
X211563857Y-132478049D01*
X211563857Y-132478049D02*
X211273571Y-132478049D01*
X211273571Y-132478049D02*
X211128428Y-132574810D01*
X211128428Y-132574810D02*
X211055857Y-132671572D01*
X211055857Y-132671572D02*
X210983285Y-132865096D01*
X210983285Y-132865096D02*
X210983285Y-133252144D01*
X210983285Y-133252144D02*
X211055857Y-133445668D01*
X211055857Y-133445668D02*
X211128428Y-133542430D01*
X211128428Y-133542430D02*
X211273571Y-133639191D01*
X211273571Y-133639191D02*
X211563857Y-133639191D01*
X211563857Y-133639191D02*
X211709000Y-133542430D01*
X211709000Y-133542430D02*
X211781571Y-133445668D01*
X211781571Y-133445668D02*
X211854142Y-133252144D01*
X211854142Y-133252144D02*
X211854142Y-132865096D01*
X211854142Y-132865096D02*
X211781571Y-132671572D01*
X211781571Y-132671572D02*
X211709000Y-132574810D01*
X211709000Y-132574810D02*
X211563857Y-132478049D01*
X213668429Y-133639191D02*
X213668429Y-131607191D01*
X213668429Y-131607191D02*
X214249000Y-131607191D01*
X214249000Y-131607191D02*
X214394143Y-131703953D01*
X214394143Y-131703953D02*
X214466714Y-131800715D01*
X214466714Y-131800715D02*
X214539286Y-131994239D01*
X214539286Y-131994239D02*
X214539286Y-132284525D01*
X214539286Y-132284525D02*
X214466714Y-132478049D01*
X214466714Y-132478049D02*
X214394143Y-132574810D01*
X214394143Y-132574810D02*
X214249000Y-132671572D01*
X214249000Y-132671572D02*
X213668429Y-132671572D01*
X215192429Y-133639191D02*
X215192429Y-131607191D01*
X215918143Y-133639191D02*
X215918143Y-131607191D01*
X215918143Y-131607191D02*
X216789000Y-133639191D01*
X216789000Y-133639191D02*
X216789000Y-131607191D01*
X217442142Y-133542430D02*
X217659857Y-133639191D01*
X217659857Y-133639191D02*
X218022714Y-133639191D01*
X218022714Y-133639191D02*
X218167857Y-133542430D01*
X218167857Y-133542430D02*
X218240428Y-133445668D01*
X218240428Y-133445668D02*
X218312999Y-133252144D01*
X218312999Y-133252144D02*
X218312999Y-133058620D01*
X218312999Y-133058620D02*
X218240428Y-132865096D01*
X218240428Y-132865096D02*
X218167857Y-132768334D01*
X218167857Y-132768334D02*
X218022714Y-132671572D01*
X218022714Y-132671572D02*
X217732428Y-132574810D01*
X217732428Y-132574810D02*
X217587285Y-132478049D01*
X217587285Y-132478049D02*
X217514714Y-132381287D01*
X217514714Y-132381287D02*
X217442142Y-132187763D01*
X217442142Y-132187763D02*
X217442142Y-131994239D01*
X217442142Y-131994239D02*
X217514714Y-131800715D01*
X217514714Y-131800715D02*
X217587285Y-131703953D01*
X217587285Y-131703953D02*
X217732428Y-131607191D01*
X217732428Y-131607191D02*
X218095285Y-131607191D01*
X218095285Y-131607191D02*
X218312999Y-131703953D01*
D10*
D11*
X205939571Y-46009191D02*
X205939571Y-43977191D01*
X205939571Y-43977191D02*
X206520142Y-43977191D01*
X206520142Y-43977191D02*
X206665285Y-44073953D01*
X206665285Y-44073953D02*
X206737856Y-44170715D01*
X206737856Y-44170715D02*
X206810428Y-44364239D01*
X206810428Y-44364239D02*
X206810428Y-44654525D01*
X206810428Y-44654525D02*
X206737856Y-44848049D01*
X206737856Y-44848049D02*
X206665285Y-44944810D01*
X206665285Y-44944810D02*
X206520142Y-45041572D01*
X206520142Y-45041572D02*
X205939571Y-45041572D01*
X207463571Y-46009191D02*
X207463571Y-43977191D01*
X209060142Y-45815668D02*
X208987570Y-45912430D01*
X208987570Y-45912430D02*
X208769856Y-46009191D01*
X208769856Y-46009191D02*
X208624713Y-46009191D01*
X208624713Y-46009191D02*
X208406999Y-45912430D01*
X208406999Y-45912430D02*
X208261856Y-45718906D01*
X208261856Y-45718906D02*
X208189285Y-45525382D01*
X208189285Y-45525382D02*
X208116713Y-45138334D01*
X208116713Y-45138334D02*
X208116713Y-44848049D01*
X208116713Y-44848049D02*
X208189285Y-44461001D01*
X208189285Y-44461001D02*
X208261856Y-44267477D01*
X208261856Y-44267477D02*
X208406999Y-44073953D01*
X208406999Y-44073953D02*
X208624713Y-43977191D01*
X208624713Y-43977191D02*
X208769856Y-43977191D01*
X208769856Y-43977191D02*
X208987570Y-44073953D01*
X208987570Y-44073953D02*
X209060142Y-44170715D01*
X210801856Y-44170715D02*
X210874428Y-44073953D01*
X210874428Y-44073953D02*
X211019571Y-43977191D01*
X211019571Y-43977191D02*
X211382428Y-43977191D01*
X211382428Y-43977191D02*
X211527571Y-44073953D01*
X211527571Y-44073953D02*
X211600142Y-44170715D01*
X211600142Y-44170715D02*
X211672713Y-44364239D01*
X211672713Y-44364239D02*
X211672713Y-44557763D01*
X211672713Y-44557763D02*
X211600142Y-44848049D01*
X211600142Y-44848049D02*
X210729285Y-46009191D01*
X210729285Y-46009191D02*
X211672713Y-46009191D01*
X212543571Y-44848049D02*
X212398428Y-44751287D01*
X212398428Y-44751287D02*
X212325857Y-44654525D01*
X212325857Y-44654525D02*
X212253285Y-44461001D01*
X212253285Y-44461001D02*
X212253285Y-44364239D01*
X212253285Y-44364239D02*
X212325857Y-44170715D01*
X212325857Y-44170715D02*
X212398428Y-44073953D01*
X212398428Y-44073953D02*
X212543571Y-43977191D01*
X212543571Y-43977191D02*
X212833857Y-43977191D01*
X212833857Y-43977191D02*
X212979000Y-44073953D01*
X212979000Y-44073953D02*
X213051571Y-44170715D01*
X213051571Y-44170715D02*
X213124142Y-44364239D01*
X213124142Y-44364239D02*
X213124142Y-44461001D01*
X213124142Y-44461001D02*
X213051571Y-44654525D01*
X213051571Y-44654525D02*
X212979000Y-44751287D01*
X212979000Y-44751287D02*
X212833857Y-44848049D01*
X212833857Y-44848049D02*
X212543571Y-44848049D01*
X212543571Y-44848049D02*
X212398428Y-44944810D01*
X212398428Y-44944810D02*
X212325857Y-45041572D01*
X212325857Y-45041572D02*
X212253285Y-45235096D01*
X212253285Y-45235096D02*
X212253285Y-45622144D01*
X212253285Y-45622144D02*
X212325857Y-45815668D01*
X212325857Y-45815668D02*
X212398428Y-45912430D01*
X212398428Y-45912430D02*
X212543571Y-46009191D01*
X212543571Y-46009191D02*
X212833857Y-46009191D01*
X212833857Y-46009191D02*
X212979000Y-45912430D01*
X212979000Y-45912430D02*
X213051571Y-45815668D01*
X213051571Y-45815668D02*
X213124142Y-45622144D01*
X213124142Y-45622144D02*
X213124142Y-45235096D01*
X213124142Y-45235096D02*
X213051571Y-45041572D01*
X213051571Y-45041572D02*
X212979000Y-44944810D01*
X212979000Y-44944810D02*
X212833857Y-44848049D01*
X214938429Y-46009191D02*
X214938429Y-43977191D01*
X214938429Y-43977191D02*
X215519000Y-43977191D01*
X215519000Y-43977191D02*
X215664143Y-44073953D01*
X215664143Y-44073953D02*
X215736714Y-44170715D01*
X215736714Y-44170715D02*
X215809286Y-44364239D01*
X215809286Y-44364239D02*
X215809286Y-44654525D01*
X215809286Y-44654525D02*
X215736714Y-44848049D01*
X215736714Y-44848049D02*
X215664143Y-44944810D01*
X215664143Y-44944810D02*
X215519000Y-45041572D01*
X215519000Y-45041572D02*
X214938429Y-45041572D01*
X216462429Y-46009191D02*
X216462429Y-43977191D01*
X217188143Y-46009191D02*
X217188143Y-43977191D01*
X217188143Y-43977191D02*
X218059000Y-46009191D01*
X218059000Y-46009191D02*
X218059000Y-43977191D01*
X218712142Y-45912430D02*
X218929857Y-46009191D01*
X218929857Y-46009191D02*
X219292714Y-46009191D01*
X219292714Y-46009191D02*
X219437857Y-45912430D01*
X219437857Y-45912430D02*
X219510428Y-45815668D01*
X219510428Y-45815668D02*
X219582999Y-45622144D01*
X219582999Y-45622144D02*
X219582999Y-45428620D01*
X219582999Y-45428620D02*
X219510428Y-45235096D01*
X219510428Y-45235096D02*
X219437857Y-45138334D01*
X219437857Y-45138334D02*
X219292714Y-45041572D01*
X219292714Y-45041572D02*
X219002428Y-44944810D01*
X219002428Y-44944810D02*
X218857285Y-44848049D01*
X218857285Y-44848049D02*
X218784714Y-44751287D01*
X218784714Y-44751287D02*
X218712142Y-44557763D01*
X218712142Y-44557763D02*
X218712142Y-44364239D01*
X218712142Y-44364239D02*
X218784714Y-44170715D01*
X218784714Y-44170715D02*
X218857285Y-44073953D01*
X218857285Y-44073953D02*
X219002428Y-43977191D01*
X219002428Y-43977191D02*
X219365285Y-43977191D01*
X219365285Y-43977191D02*
X219582999Y-44073953D01*
D12*
%TO.P,C1,1*%
%TO.N,VCC*%
X110490000Y-78867000D03*
D13*
%TO.P,C1,2*%
%TO.N,GND*%
X85490000Y-78867000D03*
%TD*%
D14*
%TO.P,C2,1*%
%TO.N,Net-(D1-K)*%
X84582000Y-90170000D03*
D13*
%TO.P,C2,2*%
%TO.N,GND*%
X109582000Y-90170000D03*
%TD*%
D15*
%TO.P,P3,*%
%TO.N,*%
X168910000Y-96520000D03*
X196850000Y-48260000D03*
D16*
%TO.P,P3,1,1_1*%
%TO.N,/VPP{slash}MCLR*%
X175260000Y-50800000D03*
%TO.P,P3,2,2_2*%
%TO.N,unconnected-(P3-Pad2)*%
X175260000Y-53340000D03*
%TO.P,P3,3,3_3*%
%TO.N,unconnected-(P3-Pad3)*%
X175260000Y-55880000D03*
%TO.P,P3,4,4_4*%
%TO.N,unconnected-(P3-Pad4)*%
X175260000Y-58420000D03*
%TO.P,P3,5,5_5*%
%TO.N,unconnected-(P3-Pad5)*%
X175260000Y-60960000D03*
%TO.P,P3,6,6_6*%
%TO.N,unconnected-(P3-Pad6)*%
X175260000Y-63500000D03*
%TO.P,P3,7,7_7*%
%TO.N,unconnected-(P3-Pad7)*%
X175260000Y-66040000D03*
%TO.P,P3,8,8_8*%
%TO.N,GND*%
X175260000Y-68580000D03*
%TO.P,P3,9,9_9*%
%TO.N,unconnected-(P3-Pad9)*%
X175260000Y-71120000D03*
%TO.P,P3,10,10_10*%
%TO.N,unconnected-(P3-Pad10)*%
X175260000Y-73660000D03*
%TO.P,P3,11,11_11*%
%TO.N,/pic_sockets/VCC_PIC*%
X175260000Y-76200000D03*
%TO.P,P3,12,12_12*%
%TO.N,GND*%
X175260000Y-78740000D03*
%TO.P,P3,13,13_13*%
%TO.N,unconnected-(P3-Pad13)*%
X175260000Y-81280000D03*
%TO.P,P3,14,14_14*%
%TO.N,unconnected-(P3-Pad14)*%
X175260000Y-83820000D03*
%TO.P,P3,15,15_15*%
%TO.N,unconnected-(P3-Pad15)*%
X175260000Y-86360000D03*
%TO.P,P3,16,16_16*%
%TO.N,unconnected-(P3-Pad16)*%
X175260000Y-88900000D03*
%TO.P,P3,17,17_17*%
%TO.N,unconnected-(P3-Pad17)*%
X175260000Y-91440000D03*
%TO.P,P3,18,18_18*%
%TO.N,unconnected-(P3-Pad18)*%
X175260000Y-93980000D03*
%TO.P,P3,19,19_19*%
%TO.N,unconnected-(P3-Pad19)*%
X175260000Y-96520000D03*
%TO.P,P3,20,20_20*%
%TO.N,unconnected-(P3-Pad20)*%
X175260000Y-99060000D03*
%TO.P,P3,21,21_21*%
%TO.N,unconnected-(P3-Pad21)*%
X190500000Y-99060000D03*
%TO.P,P3,22,22_22*%
%TO.N,unconnected-(P3-Pad22)*%
X190500000Y-96520000D03*
%TO.P,P3,23,23_23*%
%TO.N,unconnected-(P3-Pad23)*%
X190500000Y-93980000D03*
%TO.P,P3,24,24_24*%
%TO.N,unconnected-(P3-Pad24)*%
X190500000Y-91440000D03*
%TO.P,P3,25,25_25*%
%TO.N,unconnected-(P3-Pad25)*%
X190500000Y-88900000D03*
%TO.P,P3,26,26_26*%
%TO.N,unconnected-(P3-Pad26)*%
X190500000Y-86360000D03*
%TO.P,P3,27,27_27*%
%TO.N,unconnected-(P3-Pad27)*%
X190500000Y-83820000D03*
%TO.P,P3,28,28_28*%
%TO.N,unconnected-(P3-Pad28)*%
X190500000Y-81280000D03*
%TO.P,P3,29,29_29*%
%TO.N,unconnected-(P3-Pad29)*%
X190500000Y-78740000D03*
%TO.P,P3,30,30_30*%
%TO.N,unconnected-(P3-Pad30)*%
X190500000Y-76200000D03*
%TO.P,P3,31,31_31*%
%TO.N,GND*%
X190500000Y-73660000D03*
%TO.P,P3,32,32_32*%
%TO.N,/pic_sockets/VCC_PIC*%
X190500000Y-71120000D03*
%TO.P,P3,33,33_33*%
%TO.N,unconnected-(P3-Pad33)*%
X190500000Y-68580000D03*
%TO.P,P3,34,34_34*%
%TO.N,unconnected-(P3-Pad34)*%
X190500000Y-66040000D03*
%TO.P,P3,35,35_35*%
%TO.N,unconnected-(P3-Pad35)*%
X190500000Y-63500000D03*
%TO.P,P3,36,36_36*%
%TO.N,unconnected-(P3-Pad36)*%
X190500000Y-60960000D03*
%TO.P,P3,37,37_37*%
%TO.N,unconnected-(P3-Pad37)*%
X190500000Y-58420000D03*
%TO.P,P3,38,38_38*%
%TO.N,unconnected-(P3-Pad38)*%
X190500000Y-55880000D03*
%TO.P,P3,39,39_39*%
%TO.N,/CLOCK-RB6*%
X190500000Y-53340000D03*
D17*
%TO.P,P3,40,40_40*%
%TO.N,/DATA-RB7*%
X190500000Y-50800000D03*
%TD*%
D18*
%TO.P,U6,1,VDD_1*%
%TO.N,/pic_sockets/VCC_PIC*%
X179070000Y-120650000D03*
D19*
%TO.P,U6,2,GP5/OSC1_2*%
%TO.N,unconnected-(U6-GP5{slash}OSC1-Pad2)*%
X179070000Y-123190000D03*
%TO.P,U6,3,GP4/OSC2_3*%
%TO.N,unconnected-(U6-GP4{slash}OSC2-Pad3)*%
X179070000Y-125730000D03*
%TO.P,U6,4,GP3/MCLR_4*%
%TO.N,/VPP{slash}MCLR*%
X179070000Y-128270000D03*
%TO.P,U6,5,GP2_5*%
%TO.N,unconnected-(U6-GP2-Pad5)*%
X186690000Y-128270000D03*
%TO.P,U6,6,GP1_6*%
%TO.N,/CLOCK-RB6*%
X186690000Y-125730000D03*
%TO.P,U6,7,GP0_7*%
%TO.N,/DATA-RB7*%
X186690000Y-123190000D03*
%TO.P,U6,8,VSS_8*%
%TO.N,GND*%
X186690000Y-120650000D03*
%TD*%
D18*
%TO.P,U1,1,A0_1*%
%TO.N,GND*%
X179070000Y-109220000D03*
D19*
%TO.P,U1,2,A1_2*%
X179070000Y-111760000D03*
%TO.P,U1,3,A2_3*%
X179070000Y-114300000D03*
%TO.P,U1,4,GND_4*%
X179070000Y-116840000D03*
%TO.P,U1,5,SDA_5*%
%TO.N,/DATA-RB7*%
X186690000Y-116840000D03*
%TO.P,U1,6,SCL_6*%
%TO.N,/CLOCK-RB6*%
X186690000Y-114300000D03*
%TO.P,U1,7,WP_7*%
%TO.N,unconnected-(U1-WP-Pad7)*%
X186690000Y-111760000D03*
%TO.P,U1,8,VCC_8*%
%TO.N,/pic_sockets/VCC_PIC*%
X186690000Y-109220000D03*
%TD*%
D18*
%TO.P,U4,1,Vc_1*%
%TO.N,Net-(U4-Vc)*%
X110490000Y-57150000D03*
D19*
%TO.P,U4,2,FB+_2*%
%TO.N,Net-(U4-FB+)*%
X110490000Y-59690000D03*
%TO.P,U4,3,FB-_3*%
%TO.N,unconnected-(U4-FB--Pad3)*%
X110490000Y-62230000D03*
%TO.P,U4,4,S/S_4*%
%TO.N,unconnected-(U4-S{slash}S-Pad4)*%
X110490000Y-64770000D03*
%TO.P,U4,5,Vin_5*%
%TO.N,VCC*%
X118110000Y-64770000D03*
%TO.P,U4,6,GND_S_6*%
%TO.N,GND*%
X118110000Y-62230000D03*
%TO.P,U4,7,GND_7*%
X118110000Y-59690000D03*
%TO.P,U4,8,Vsw_8*%
%TO.N,Net-(D10-A)*%
X118110000Y-57150000D03*
%TD*%
D18*
%TO.P,P2,1,1_1*%
%TO.N,/VPP{slash}MCLR*%
X207645000Y-50800000D03*
D19*
%TO.P,P2,2,2_2*%
%TO.N,unconnected-(P2-Pad2)*%
X207645000Y-53340000D03*
%TO.P,P2,3,3_3*%
%TO.N,unconnected-(P2-Pad3)*%
X207645000Y-55880000D03*
%TO.P,P2,4,4_4*%
%TO.N,unconnected-(P2-Pad4)*%
X207645000Y-58420000D03*
%TO.P,P2,5,5_5*%
%TO.N,unconnected-(P2-Pad5)*%
X207645000Y-60960000D03*
%TO.P,P2,6,6_6*%
%TO.N,unconnected-(P2-Pad6)*%
X207645000Y-63500000D03*
%TO.P,P2,7,7_7*%
%TO.N,unconnected-(P2-Pad7)*%
X207645000Y-66040000D03*
%TO.P,P2,8,8_8*%
%TO.N,GND*%
X207645000Y-68580000D03*
%TO.P,P2,9,9_9*%
%TO.N,unconnected-(P2-Pad9)*%
X207645000Y-71120000D03*
%TO.P,P2,10,10_10*%
%TO.N,unconnected-(P2-Pad10)*%
X207645000Y-73660000D03*
%TO.P,P2,11,11_11*%
%TO.N,unconnected-(P2-Pad11)*%
X207645000Y-76200000D03*
%TO.P,P2,12,12_12*%
%TO.N,unconnected-(P2-Pad12)*%
X207645000Y-78740000D03*
%TO.P,P2,13,13_13*%
%TO.N,unconnected-(P2-Pad13)*%
X207645000Y-81280000D03*
%TO.P,P2,14,14_14*%
%TO.N,unconnected-(P2-Pad14)*%
X207645000Y-83820000D03*
%TO.P,P2,15,15_15*%
%TO.N,unconnected-(P2-Pad15)*%
X215265000Y-83820000D03*
%TO.P,P2,16,16_16*%
%TO.N,unconnected-(P2-Pad16)*%
X215265000Y-81280000D03*
%TO.P,P2,17,17_17*%
%TO.N,unconnected-(P2-Pad17)*%
X215265000Y-78740000D03*
%TO.P,P2,18,18_18*%
%TO.N,unconnected-(P2-Pad18)*%
X215265000Y-76200000D03*
%TO.P,P2,19,19_19*%
%TO.N,GND*%
X215265000Y-73660000D03*
%TO.P,P2,20,20_20*%
%TO.N,/pic_sockets/VCC_PIC*%
X215265000Y-71120000D03*
%TO.P,P2,21,21_21*%
%TO.N,unconnected-(P2-Pad21)*%
X215265000Y-68580000D03*
%TO.P,P2,22,22_22*%
%TO.N,unconnected-(P2-Pad22)*%
X215265000Y-66040000D03*
%TO.P,P2,23,23_23*%
%TO.N,unconnected-(P2-Pad23)*%
X215265000Y-63500000D03*
%TO.P,P2,24,24_24*%
%TO.N,unconnected-(P2-Pad24)*%
X215265000Y-60960000D03*
%TO.P,P2,25,25_25*%
%TO.N,unconnected-(P2-Pad25)*%
X215265000Y-58420000D03*
%TO.P,P2,26,26_26*%
%TO.N,unconnected-(P2-Pad26)*%
X215265000Y-55880000D03*
%TO.P,P2,27,27_27*%
%TO.N,/CLOCK-RB6*%
X215265000Y-53340000D03*
%TO.P,P2,28,28_28*%
%TO.N,/DATA-RB7*%
X215265000Y-50800000D03*
%TD*%
D18*
%TO.P,U5,1,RA2_1*%
%TO.N,unconnected-(U5-RA2-Pad1)*%
X207899000Y-107950000D03*
D19*
%TO.P,U5,2,RA3_2*%
%TO.N,unconnected-(U5-RA3-Pad2)*%
X207899000Y-110490000D03*
%TO.P,U5,3,T0ckl_3*%
%TO.N,unconnected-(U5-T0ckl-Pad3)*%
X207899000Y-113030000D03*
%TO.P,U5,4,MCLR_4*%
%TO.N,/VPP{slash}MCLR*%
X207899000Y-115570000D03*
%TO.P,U5,5,VSS_5*%
%TO.N,GND*%
X207899000Y-118110000D03*
%TO.P,U5,6,RB0_6*%
%TO.N,unconnected-(U5-RB0-Pad6)*%
X207899000Y-120650000D03*
%TO.P,U5,7,RB1_7*%
%TO.N,unconnected-(U5-RB1-Pad7)*%
X207899000Y-123190000D03*
%TO.P,U5,8,RB2_8*%
%TO.N,unconnected-(U5-RB2-Pad8)*%
X207899000Y-125730000D03*
%TO.P,U5,9,RB3_9*%
%TO.N,unconnected-(U5-RB3-Pad9)*%
X207899000Y-128270000D03*
%TO.P,U5,10,RB4_10*%
%TO.N,unconnected-(U5-RB4-Pad10)*%
X215519000Y-128270000D03*
%TO.P,U5,11,RB5_11*%
%TO.N,unconnected-(U5-RB5-Pad11)*%
X215519000Y-125730000D03*
%TO.P,U5,12,ICSPC/RB6_12*%
%TO.N,/CLOCK-RB6*%
X215519000Y-123190000D03*
%TO.P,U5,13,ICSPD/RB7_13*%
%TO.N,/DATA-RB7*%
X215519000Y-120650000D03*
%TO.P,U5,14,VDD_14*%
%TO.N,/pic_sockets/VCC_PIC*%
X215519000Y-118110000D03*
%TO.P,U5,15,OSC2/CLKO_15*%
%TO.N,unconnected-(U5-OSC2{slash}CLKO-Pad15)*%
X215519000Y-115570000D03*
%TO.P,U5,16,OSC1/CLKI_16*%
%TO.N,unconnected-(U5-OSC1{slash}CLKI-Pad16)*%
X215519000Y-113030000D03*
%TO.P,U5,17,RA0_17*%
%TO.N,unconnected-(U5-RA0-Pad17)*%
X215519000Y-110490000D03*
%TO.P,U5,18,RA1_18*%
%TO.N,unconnected-(U5-RA1-Pad18)*%
X215519000Y-107950000D03*
%TD*%
D20*
%TO.P,U2,1*%
%TO.N,GND*%
X115570000Y-119380000D03*
D21*
%TO.P,U2,2*%
%TO.N,Net-(D2-A)*%
X118110000Y-119380000D03*
%TO.P,U2,3*%
%TO.N,Net-(R8-Pad1)*%
X120650000Y-119380000D03*
%TO.P,U2,4*%
%TO.N,GND*%
X123190000Y-119380000D03*
%TO.P,U2,5*%
%TO.N,Net-(D4-A)*%
X125730000Y-119380000D03*
%TO.P,U2,6*%
%TO.N,Net-(R12-Pad1)*%
X128270000Y-119380000D03*
%TO.P,U2,7,GND_7*%
%TO.N,GND*%
X130810000Y-119380000D03*
%TO.P,U2,8*%
%TO.N,Net-(R13-Pad1)*%
X130810000Y-111760000D03*
%TO.P,U2,9*%
%TO.N,Net-(D6-A)*%
X128270000Y-111760000D03*
%TO.P,U2,10*%
%TO.N,GND*%
X125730000Y-111760000D03*
%TO.P,U2,11*%
%TO.N,/PC-DATA-IN*%
X123190000Y-111760000D03*
%TO.P,U2,12*%
%TO.N,/DATA-RB7*%
X120650000Y-111760000D03*
%TO.P,U2,13*%
%TO.N,GND*%
X118110000Y-111760000D03*
%TO.P,U2,14,VCC_14*%
%TO.N,VCC*%
X115570000Y-111760000D03*
%TD*%
D22*
%TO.P,D2,1,K_1*%
%TO.N,VCC*%
X107950000Y-118237000D03*
D23*
%TO.P,D2,2,A_2*%
%TO.N,Net-(D2-A)*%
X100330000Y-118237000D03*
%TD*%
D22*
%TO.P,D3,1,K_1*%
%TO.N,Net-(D2-A)*%
X107950000Y-121920000D03*
D23*
%TO.P,D3,2,A_2*%
%TO.N,GND*%
X100330000Y-121920000D03*
%TD*%
D22*
%TO.P,D4,1,K_1*%
%TO.N,VCC*%
X107950000Y-111887000D03*
D23*
%TO.P,D4,2,A_2*%
%TO.N,Net-(D4-A)*%
X100330000Y-111887000D03*
%TD*%
D22*
%TO.P,D5,1,K_1*%
%TO.N,Net-(D4-A)*%
X107950000Y-108585000D03*
D23*
%TO.P,D5,2,A_2*%
%TO.N,GND*%
X100330000Y-108585000D03*
%TD*%
D24*
%TO.P,D11,1,K_1*%
%TO.N,Net-(D11-K)*%
X139065000Y-80645000D03*
D23*
%TO.P,D11,2,A_2*%
%TO.N,Net-(D11-A)*%
X146685000Y-80645000D03*
%TD*%
D22*
%TO.P,D7,1,K_1*%
%TO.N,Net-(D6-A)*%
X107950000Y-115316000D03*
D23*
%TO.P,D7,2,A_2*%
%TO.N,GND*%
X100330000Y-115316000D03*
%TD*%
D22*
%TO.P,D6,1,K_1*%
%TO.N,VCC*%
X107950000Y-125095000D03*
D23*
%TO.P,D6,2,A_2*%
%TO.N,Net-(D6-A)*%
X100330000Y-125095000D03*
%TD*%
D25*
%TO.P,J1,1,1_1*%
%TO.N,unconnected-(J1-Pad1)*%
X82600000Y-120200000D03*
D23*
%TO.P,J1,2,2_2*%
%TO.N,unconnected-(J1-Pad2)*%
X82600000Y-117430000D03*
%TO.P,J1,3,3_3*%
%TO.N,/VPP_ON*%
X82600000Y-114660000D03*
%TO.P,J1,4,4_4*%
%TO.N,/PC-DATA-OUT*%
X82600000Y-111890000D03*
%TO.P,J1,5,5_5*%
%TO.N,GND*%
X82600000Y-109120000D03*
%TO.P,J1,6,P6_6*%
%TO.N,unconnected-(J1-P6-Pad6)*%
X79760000Y-118815000D03*
%TO.P,J1,7,P7_7*%
%TO.N,/PC-CLOCK-OUT*%
X79760000Y-116045000D03*
%TO.P,J1,8,P8_8*%
%TO.N,/PC-DATA-IN*%
X79760000Y-113275000D03*
%TO.P,J1,9,P9_9*%
%TO.N,unconnected-(J1-P9-Pad9)*%
X79760000Y-110505000D03*
D26*
%TO.P,J1,SH*%
%TO.N,N/C*%
X81180000Y-102160000D03*
X81180000Y-127160000D03*
%TD*%
D27*
%TO.P,Q3,1,C_1*%
%TO.N,/pic_sockets/VCC_PIC*%
X142240000Y-97790000D03*
D28*
%TO.P,Q3,2,B_2*%
%TO.N,Net-(Q3-B)*%
X143510000Y-96520000D03*
%TO.P,Q3,3,E_3*%
%TO.N,VCC*%
X144780000Y-97790000D03*
%TD*%
D29*
%TO.P,Q2,1,C_1*%
%TO.N,Net-(Q2-C)*%
X148082000Y-60706000D03*
D28*
%TO.P,Q2,2,B_2*%
%TO.N,Net-(Q2-B)*%
X146812000Y-61976000D03*
%TO.P,Q2,3,E_3*%
%TO.N,VPP*%
X145542000Y-60706000D03*
%TD*%
D27*
%TO.P,Q1,1,C_1*%
%TO.N,Net-(D11-K)*%
X146050000Y-69850000D03*
D28*
%TO.P,Q1,2,B_2*%
%TO.N,Net-(Q1-B)*%
X147320000Y-68580000D03*
%TO.P,Q1,3,E_3*%
%TO.N,GND*%
X148590000Y-69850000D03*
%TD*%
D23*
%TO.P,R18,1*%
%TO.N,Net-(Q2-C)*%
X152400000Y-68580000D03*
%TO.P,R18,2*%
%TO.N,/VPP{slash}MCLR*%
X152400000Y-58420000D03*
%TD*%
%TO.P,R10,1*%
%TO.N,Net-(U4-Vc)*%
X114300000Y-48260000D03*
%TO.P,R10,2*%
%TO.N,Net-(C5-Pad1)*%
X124460000Y-48260000D03*
%TD*%
%TO.P,R9,1*%
%TO.N,Net-(Q2-C)*%
X139065000Y-77470000D03*
%TO.P,R9,2*%
%TO.N,Net-(D8-A)*%
X149225000Y-77470000D03*
%TD*%
%TO.P,R1,1*%
%TO.N,/VPP_ON*%
X87630000Y-118110000D03*
%TO.P,R1,2*%
%TO.N,Net-(D2-A)*%
X97790000Y-118110000D03*
%TD*%
%TO.P,R2,1*%
%TO.N,/VPP_ON*%
X87630000Y-114554000D03*
%TO.P,R2,2*%
%TO.N,GND*%
X97790000Y-114554000D03*
%TD*%
%TO.P,R3,1*%
%TO.N,/PC-DATA-OUT*%
X87630000Y-111125000D03*
%TO.P,R3,2*%
%TO.N,Net-(D4-A)*%
X97790000Y-111125000D03*
%TD*%
%TO.P,R4,1*%
%TO.N,/PC-DATA-OUT*%
X87630000Y-107823000D03*
%TO.P,R4,2*%
%TO.N,GND*%
X97790000Y-107823000D03*
%TD*%
%TO.P,R5,1*%
%TO.N,/PC-CLOCK-OUT*%
X87757000Y-125476000D03*
%TO.P,R5,2*%
%TO.N,Net-(D6-A)*%
X97917000Y-125476000D03*
%TD*%
%TO.P,R7,1*%
%TO.N,VPP*%
X139700000Y-54610000D03*
%TO.P,R7,2*%
%TO.N,Net-(Q2-B)*%
X149860000Y-54610000D03*
%TD*%
%TO.P,R6,1*%
%TO.N,/PC-CLOCK-OUT*%
X87757000Y-121920000D03*
%TO.P,R6,2*%
%TO.N,GND*%
X97917000Y-121920000D03*
%TD*%
%TO.P,R21,1*%
%TO.N,Net-(D12-A)*%
X158115000Y-102235000D03*
%TO.P,R21,2*%
%TO.N,/pic_sockets/VCC_PIC*%
X147955000Y-102235000D03*
%TD*%
%TO.P,R20,1*%
%TO.N,VCC*%
X144780000Y-102235000D03*
%TO.P,R20,2*%
%TO.N,Net-(Q3-B)*%
X134620000Y-102235000D03*
%TD*%
%TO.P,R19,1*%
%TO.N,Net-(D11-A)*%
X149225000Y-83820000D03*
%TO.P,R19,2*%
%TO.N,Net-(Q3-B)*%
X139065000Y-83820000D03*
%TD*%
%TO.P,R17,1*%
%TO.N,Net-(Q2-C)*%
X156210000Y-68580000D03*
%TO.P,R17,2*%
%TO.N,GND*%
X156210000Y-58420000D03*
%TD*%
%TO.P,R16,1*%
%TO.N,Net-(R16-Pad1)*%
X118110000Y-75184000D03*
%TO.P,R16,2*%
%TO.N,VPP*%
X128270000Y-75184000D03*
%TD*%
%TO.P,R15,1*%
%TO.N,Net-(R15-Pad1)*%
X118110000Y-78740000D03*
%TO.P,R15,2*%
%TO.N,GND*%
X128270000Y-78740000D03*
%TD*%
%TO.P,R14,1*%
%TO.N,VCC*%
X139065000Y-87630000D03*
%TO.P,R14,2*%
%TO.N,Net-(D9-A)*%
X149225000Y-87630000D03*
%TD*%
%TO.P,R13,1*%
%TO.N,Net-(R13-Pad1)*%
X140335000Y-111760000D03*
%TO.P,R13,2*%
%TO.N,/CLOCK-RB6*%
X140335000Y-121920000D03*
%TD*%
%TO.P,R8,1*%
%TO.N,Net-(R8-Pad1)*%
X139065000Y-91059000D03*
%TO.P,R8,2*%
%TO.N,Net-(Q1-B)*%
X149225000Y-91059000D03*
%TD*%
%TO.P,R12,1*%
%TO.N,Net-(R12-Pad1)*%
X135255000Y-121920000D03*
%TO.P,R12,2*%
%TO.N,/DATA-RB7*%
X135255000Y-111760000D03*
%TD*%
D30*
%TO.P,D8,1,K_1*%
%TO.N,GND*%
X156210000Y-77470000D03*
D31*
%TO.P,D8,2,A_2*%
%TO.N,Net-(D8-A)*%
X153670000Y-77470000D03*
%TD*%
D30*
%TO.P,D9,1,K_1*%
%TO.N,GND*%
X156210000Y-87630000D03*
D31*
%TO.P,D9,2,A_2*%
%TO.N,Net-(D9-A)*%
X153670000Y-87630000D03*
%TD*%
D30*
%TO.P,D12,1,K_1*%
%TO.N,GND*%
X156210000Y-97155000D03*
D31*
%TO.P,D12,2,A_2*%
%TO.N,Net-(D12-A)*%
X153670000Y-97155000D03*
%TD*%
D23*
%TO.P,C4,1*%
%TO.N,Net-(U4-Vc)*%
X114300000Y-52070000D03*
%TO.P,C4,2*%
%TO.N,GND*%
X119300000Y-52070000D03*
%TD*%
%TO.P,C5,1*%
%TO.N,Net-(C5-Pad1)*%
X129540000Y-49530000D03*
%TO.P,C5,2*%
%TO.N,GND*%
X134540000Y-49530000D03*
%TD*%
%TO.P,C7,1*%
%TO.N,/pic_sockets/VCC_PIC*%
X198755000Y-71120000D03*
%TO.P,C7,2*%
%TO.N,GND*%
X198755000Y-76120000D03*
%TD*%
%TO.P,C9,1*%
%TO.N,VPP*%
X143002000Y-49784000D03*
%TO.P,C9,2*%
%TO.N,Net-(Q2-B)*%
X148002000Y-49784000D03*
%TD*%
%TO.P,C6,1*%
%TO.N,/pic_sockets/VCC_PIC*%
X196850000Y-112395000D03*
%TO.P,C6,2*%
%TO.N,GND*%
X196850000Y-117395000D03*
%TD*%
D22*
%TO.P,D10,1,K_1*%
%TO.N,VPP*%
X137160000Y-57150000D03*
D23*
%TO.P,D10,2,A_2*%
%TO.N,Net-(D10-A)*%
X124460000Y-57150000D03*
%TD*%
D32*
%TO.P,RV1,1,1_1*%
%TO.N,Net-(R15-Pad1)*%
X127635000Y-90805000D03*
%TO.P,RV1,2,2_2*%
%TO.N,Net-(U4-FB+)*%
X117475000Y-88265000D03*
%TO.P,RV1,3,3_3*%
%TO.N,Net-(R16-Pad1)*%
X127635000Y-85725000D03*
%TD*%
D33*
%TO.P,P1,1,P1_1*%
%TO.N,GND*%
X81800000Y-60000000D03*
D34*
%TO.P,P1,2,PM_2*%
%TO.N,Net-(D1-A)*%
X81800000Y-65000000D03*
%TD*%
D35*
%TO.P,U3,1,VI_1*%
%TO.N,Net-(D1-K)*%
X96520000Y-71120000D03*
D36*
%TO.P,U3,2,GND_2*%
%TO.N,GND*%
X99060000Y-71120000D03*
%TO.P,U3,3,VO_3*%
%TO.N,VCC*%
X101600000Y-71120000D03*
%TD*%
D23*
%TO.P,R11,1*%
%TO.N,Net-(D11-K)*%
X140081000Y-70993000D03*
%TO.P,R11,2*%
%TO.N,Net-(Q2-B)*%
X140081000Y-60833000D03*
%TD*%
%TO.P,C3,1*%
%TO.N,VPP*%
X134112000Y-62230000D03*
%TO.P,C3,2*%
%TO.N,GND*%
X134112000Y-82230000D03*
%TD*%
D37*
%TO.P,L1,1,1_1*%
%TO.N,Net-(D10-A)*%
X125730000Y-62230000D03*
%TO.P,L1,2,2_2*%
%TO.N,VCC*%
X125730000Y-67230000D03*
%TD*%
D38*
%TO.P,D1,1,K_1*%
%TO.N,Net-(D1-K)*%
X78300000Y-89700000D03*
D23*
%TO.P,D1,2,A_2*%
%TO.N,Net-(D1-A)*%
X78300000Y-77000000D03*
%TD*%
D39*
%TO.N,/CLOCK-RB6*%
X189865000Y-110490000D03*
X192405000Y-125730000D03*
X196850000Y-54610000D03*
%TO.N,/DATA-RB7*%
X200025000Y-52070000D03*
X192405000Y-123190000D03*
X192405000Y-114300000D03*
%TD*%
%TO.N,VCC*%
D40*
X110490000Y-124155000D02*
X110490000Y-119380000D01*
X145100000Y-97470000D02*
X144780000Y-97790000D01*
X141986000Y-87630000D02*
X145100000Y-90744000D01*
X109550000Y-125095000D02*
X110490000Y-124155000D01*
X145100000Y-90744000D02*
X145100000Y-97470000D01*
X110490000Y-119380000D02*
X109220000Y-118110000D01*
X107950000Y-125095000D02*
X109550000Y-125095000D01*
X109220000Y-118110000D02*
X107950000Y-118110000D01*
X109855000Y-111760000D02*
X110490000Y-112395000D01*
X110490000Y-112395000D02*
X110490000Y-116840000D01*
X107950000Y-111760000D02*
X109855000Y-111760000D01*
X139065000Y-87630000D02*
X141986000Y-87630000D01*
X110490000Y-116840000D02*
X109220000Y-118110000D01*
%TO.N,/pic_sockets/VCC_PIC*%
D41*
X154305000Y-104775000D02*
X151765000Y-102235000D01*
X151765000Y-102235000D02*
X147955000Y-102235000D01*
X185420000Y-104775000D02*
X186690000Y-106045000D01*
X186690000Y-109220000D02*
X186690000Y-106045000D01*
X170180000Y-104775000D02*
X154305000Y-104775000D01*
X170180000Y-104775000D02*
X185420000Y-104775000D01*
%TO.N,/CLOCK-RB6*%
X189865000Y-123190000D02*
X192405000Y-125730000D01*
X193040000Y-75565000D02*
X196215000Y-72390000D01*
X196850000Y-67310000D02*
X196850000Y-54610000D01*
X196215000Y-72390000D02*
X196215000Y-67945000D01*
X193040000Y-107315000D02*
X189865000Y-110490000D01*
X189865000Y-110490000D02*
X189865000Y-123190000D01*
X196215000Y-67945000D02*
X196850000Y-67310000D01*
X193040000Y-107315000D02*
X193040000Y-75565000D01*
%TO.N,/DATA-RB7*%
X201295000Y-85090000D02*
X194945000Y-91440000D01*
X194945000Y-91440000D02*
X194945000Y-113665000D01*
X200025000Y-57150000D02*
X200025000Y-52070000D01*
X201295000Y-58420000D02*
X201295000Y-85090000D01*
X120650000Y-109855000D02*
X121285000Y-109220000D01*
X192405000Y-114300000D02*
X192405000Y-123190000D01*
X120650000Y-111760000D02*
X120650000Y-109855000D01*
X194945000Y-113665000D02*
X194310000Y-114300000D01*
X132715000Y-109220000D02*
X135255000Y-111760000D01*
X194310000Y-114300000D02*
X192405000Y-114300000D01*
X200025000Y-57150000D02*
X201295000Y-58420000D01*
X121285000Y-109220000D02*
X132715000Y-109220000D01*
%TO.N,Net-(R8-Pad1)*%
X135001000Y-96266000D02*
X135001000Y-92456000D01*
X120015000Y-116205000D02*
X114935000Y-116205000D01*
X114935000Y-102235000D02*
X129032000Y-102235000D01*
X129032000Y-102235000D02*
X135001000Y-96266000D01*
X136398000Y-91059000D02*
X139065000Y-91059000D01*
X135001000Y-92456000D02*
X136398000Y-91059000D01*
X113030000Y-104140000D02*
X114935000Y-102235000D01*
X113030000Y-114300000D02*
X113030000Y-104140000D01*
X120650000Y-116840000D02*
X120015000Y-116205000D01*
X114935000Y-116205000D02*
X113030000Y-114300000D01*
X120650000Y-119380000D02*
X120650000Y-116840000D01*
%TO.N,Net-(D4-A)*%
X111760000Y-119380000D02*
X115570000Y-123190000D01*
X125730000Y-120650000D02*
X125730000Y-119380000D01*
X111760000Y-109855000D02*
X111760000Y-119380000D01*
X115570000Y-123190000D02*
X123190000Y-123190000D01*
X107950000Y-108712000D02*
X111125000Y-109220000D01*
X111125000Y-109220000D02*
X111760000Y-109855000D01*
X123190000Y-123190000D02*
X125730000Y-120650000D01*
%TO.N,Net-(Q2-C)*%
X150495000Y-71755000D02*
X152400000Y-69850000D01*
X139065000Y-73660000D02*
X146050000Y-73660000D01*
X137795000Y-74930000D02*
X137795000Y-76200000D01*
X146050000Y-73660000D02*
X147955000Y-71755000D01*
X147955000Y-71755000D02*
X150495000Y-71755000D01*
X137795000Y-74930000D02*
X139065000Y-73660000D01*
X152400000Y-68580000D02*
X152400000Y-69850000D01*
X137795000Y-76200000D02*
X139065000Y-77470000D01*
%TD*%
M02*
