M48
; DRILL file KiCad 10.0.4 date 2026-07-21T10:54:01
; FORMAT={-:-/ absolute / metric / decimal}
; #@! TF.CreationDate,2026-07-21T10:54:01-05:00
; #@! TF.GenerationSoftware,Kicad,Pcbnew,10.0.4
; #@! TF.FileFunction,MixedPlating,1,2
FMAT,2
METRIC
; #@! TA.AperFunction,Plated,PTH,ViaDrill
T1C0.600
; #@! TA.AperFunction,Plated,PTH,ComponentDrill
T2C0.750
; #@! TA.AperFunction,Plated,PTH,ComponentDrill
T3C0.800
; #@! TA.AperFunction,Plated,PTH,ComponentDrill
T4C0.900
; #@! TA.AperFunction,Plated,PTH,ComponentDrill
T5C1.000
; #@! TA.AperFunction,Plated,PTH,ComponentDrill
T6C1.100
; #@! TA.AperFunction,Plated,PTH,ComponentDrill
T7C1.200
; #@! TA.AperFunction,Plated,PTH,ComponentDrill
T8C1.270
; #@! TA.AperFunction,Plated,PTH,ComponentDrill
T9C1.300
; #@! TA.AperFunction,Plated,PTH,ComponentDrill
T10C2.000
; #@! TA.AperFunction,Plated,PTH,ComponentDrill
T11C3.200
; #@! TA.AperFunction,NonPlated,NPTH,ComponentDrill
T12C3.500
; #@! TA.AperFunction,NonPlated,NPTH,ComponentDrill
T13C4.300
%
G90
G05
T1
X189.865Y-110.49
X192.405Y-114.3
X192.405Y-123.19
X192.405Y-125.73
X196.85Y-54.61
X200.025Y-52.07
T2
X142.24Y-97.79
X143.51Y-96.52
X144.78Y-97.79
X145.542Y-60.706
X146.05Y-69.85
X146.812Y-61.976
X147.32Y-68.58
X148.082Y-60.706
X148.59Y-69.85
T3
X78.3Y-77.0
X78.3Y-89.7
X87.63Y-107.823
X87.63Y-111.125
X87.63Y-114.554
X87.63Y-118.11
X87.757Y-121.92
X87.757Y-125.476
X97.79Y-107.823
X97.79Y-111.125
X97.79Y-114.554
X97.79Y-118.11
X97.917Y-121.92
X97.917Y-125.476
X100.33Y-108.585
X100.33Y-111.887
X100.33Y-115.316
X100.33Y-118.237
X100.33Y-121.92
X100.33Y-125.095
X107.95Y-108.585
X107.95Y-111.887
X107.95Y-115.316
X107.95Y-118.237
X107.95Y-121.92
X107.95Y-125.095
X110.49Y-57.15
X110.49Y-59.69
X110.49Y-62.23
X110.49Y-64.77
X114.3Y-48.26
X114.3Y-52.07
X115.57Y-111.76
X115.57Y-119.38
X118.11Y-57.15
X118.11Y-59.69
X118.11Y-62.23
X118.11Y-64.77
X118.11Y-75.184
X118.11Y-78.74
X118.11Y-111.76
X118.11Y-119.38
X119.3Y-52.07
X120.65Y-111.76
X120.65Y-119.38
X123.19Y-111.76
X123.19Y-119.38
X124.46Y-48.26
X124.46Y-57.15
X125.73Y-111.76
X125.73Y-119.38
X128.27Y-75.184
X128.27Y-78.74
X128.27Y-111.76
X128.27Y-119.38
X129.54Y-49.53
X130.81Y-111.76
X130.81Y-119.38
X134.112Y-62.23
X134.112Y-82.23
X134.54Y-49.53
X134.62Y-102.235
X135.255Y-111.76
X135.255Y-121.92
X137.16Y-57.15
X139.065Y-77.47
X139.065Y-80.645
X139.065Y-83.82
X139.065Y-87.63
X139.065Y-91.059
X139.7Y-54.61
X140.081Y-60.833
X140.081Y-70.993
X140.335Y-111.76
X140.335Y-121.92
X143.002Y-49.784
X144.78Y-102.235
X146.685Y-80.645
X147.955Y-102.235
X148.002Y-49.784
X149.225Y-77.47
X149.225Y-83.82
X149.225Y-87.63
X149.225Y-91.059
X149.86Y-54.61
X152.4Y-58.42
X152.4Y-68.58
X156.21Y-58.42
X156.21Y-68.58
X158.115Y-102.235
X179.07Y-109.22
X179.07Y-111.76
X179.07Y-114.3
X179.07Y-116.84
X179.07Y-120.65
X179.07Y-123.19
X179.07Y-125.73
X179.07Y-128.27
X186.69Y-109.22
X186.69Y-111.76
X186.69Y-114.3
X186.69Y-116.84
X186.69Y-120.65
X186.69Y-123.19
X186.69Y-125.73
X186.69Y-128.27
X196.85Y-112.395
X196.85Y-117.395
X198.755Y-71.12
X198.755Y-76.12
X207.645Y-50.8
X207.645Y-53.34
X207.645Y-55.88
X207.645Y-58.42
X207.645Y-60.96
X207.645Y-63.5
X207.645Y-66.04
X207.645Y-68.58
X207.645Y-71.12
X207.645Y-73.66
X207.645Y-76.2
X207.645Y-78.74
X207.645Y-81.28
X207.645Y-83.82
X207.899Y-107.95
X207.899Y-110.49
X207.899Y-113.03
X207.899Y-115.57
X207.899Y-118.11
X207.899Y-120.65
X207.899Y-123.19
X207.899Y-125.73
X207.899Y-128.27
X215.265Y-50.8
X215.265Y-53.34
X215.265Y-55.88
X215.265Y-58.42
X215.265Y-60.96
X215.265Y-63.5
X215.265Y-66.04
X215.265Y-68.58
X215.265Y-71.12
X215.265Y-73.66
X215.265Y-76.2
X215.265Y-78.74
X215.265Y-81.28
X215.265Y-83.82
X215.519Y-107.95
X215.519Y-110.49
X215.519Y-113.03
X215.519Y-115.57
X215.519Y-118.11
X215.519Y-120.65
X215.519Y-123.19
X215.519Y-125.73
X215.519Y-128.27
T4
X153.67Y-77.47
X153.67Y-87.63
X153.67Y-97.155
X156.21Y-77.47
X156.21Y-87.63
X156.21Y-97.155
T5
X79.76Y-110.505
X79.76Y-113.275
X79.76Y-116.045
X79.76Y-118.815
X82.6Y-109.12
X82.6Y-111.89
X82.6Y-114.66
X82.6Y-117.43
X82.6Y-120.2
X175.26Y-50.8
X175.26Y-53.34
X175.26Y-55.88
X175.26Y-58.42
X175.26Y-60.96
X175.26Y-63.5
X175.26Y-66.04
X175.26Y-68.58
X175.26Y-71.12
X175.26Y-73.66
X175.26Y-76.2
X175.26Y-78.74
X175.26Y-81.28
X175.26Y-83.82
X175.26Y-86.36
X175.26Y-88.9
X175.26Y-91.44
X175.26Y-93.98
X175.26Y-96.52
X175.26Y-99.06
X190.5Y-50.8
X190.5Y-53.34
X190.5Y-55.88
X190.5Y-58.42
X190.5Y-60.96
X190.5Y-63.5
X190.5Y-66.04
X190.5Y-68.58
X190.5Y-71.12
X190.5Y-73.66
X190.5Y-76.2
X190.5Y-78.74
X190.5Y-81.28
X190.5Y-83.82
X190.5Y-86.36
X190.5Y-88.9
X190.5Y-91.44
X190.5Y-93.98
X190.5Y-96.52
X190.5Y-99.06
T6
X96.52Y-71.12
X99.06Y-71.12
X101.6Y-71.12
T7
X84.582Y-90.17
X85.49Y-78.867
X109.582Y-90.17
X110.49Y-78.867
T8
X117.475Y-88.265
X127.635Y-85.725
X127.635Y-90.805
T9
X81.8Y-60.0
X81.8Y-65.0
X125.73Y-62.23
X125.73Y-67.23
T10
X168.91Y-96.52
X196.85Y-48.26
T11
X81.18Y-102.16
X81.18Y-127.16
T12
X99.06Y-54.46
T13
X77.47Y-44.45
X77.47Y-135.89
X158.75Y-44.45
X158.75Y-135.89
X229.87Y-44.45
X229.87Y-135.89
M30
