%TF.GenerationSoftware,KiCad,Pcbnew,10.0.4*%
%TF.CreationDate,2026-07-21T10:54:00-05:00*%
%TF.ProjectId,pic_programmer,7069635f-7072-46f6-9772-616d6d65722e,rev?*%
%TF.SameCoordinates,Original*%
%TF.FileFunction,Legend,Bot*%
%TF.FilePolarity,Positive*%
%FSLAX46Y46*%
G04 Gerber Fmt 4.6, Leading zero omitted, Abs format (unit mm)*
G04 Created by KiCad (PCBNEW 10.0.4) date 2026-07-21 10:54:00*
%MOMM*%
%LPD*%
G01*
G04 APERTURE LIST*
%ADD10C,0.150000*%
%ADD11C,0.120000*%
G04 APERTURE END LIST*
D10*
X148915333Y-99044819D02*
X148915333Y-99759104D01*
X148915333Y-99759104D02*
X148962952Y-99901961D01*
X148962952Y-99901961D02*
X149058190Y-99997200D01*
X149058190Y-99997200D02*
X149201047Y-100044819D01*
X149201047Y-100044819D02*
X149296285Y-100044819D01*
X148439142Y-100044819D02*
X148439142Y-99044819D01*
X148439142Y-99044819D02*
X148058190Y-99044819D01*
X148058190Y-99044819D02*
X147962952Y-99092438D01*
X147962952Y-99092438D02*
X147915333Y-99140057D01*
X147915333Y-99140057D02*
X147867714Y-99235295D01*
X147867714Y-99235295D02*
X147867714Y-99378152D01*
X147867714Y-99378152D02*
X147915333Y-99473390D01*
X147915333Y-99473390D02*
X147962952Y-99521009D01*
X147962952Y-99521009D02*
X148058190Y-99568628D01*
X148058190Y-99568628D02*
X148439142Y-99568628D01*
X146915333Y-100044819D02*
X147486761Y-100044819D01*
X147201047Y-100044819D02*
X147201047Y-99044819D01*
X147201047Y-99044819D02*
X147296285Y-99187676D01*
X147296285Y-99187676D02*
X147391523Y-99282914D01*
X147391523Y-99282914D02*
X147486761Y-99330533D01*
%TO.C,JP1*%
D11*
X146682000Y-96790000D02*
X146682000Y-98790000D01*
X146682000Y-98790000D02*
X149482000Y-98790000D01*
X149482000Y-96790000D02*
X146682000Y-96790000D01*
X149482000Y-98790000D02*
X149482000Y-96790000D01*
%TD*%
M02*
